<svg width="24" height="25" viewBox="0 0 24 25" fill="none" xmlns="http://www.w3.org/2000/svg">
<path d="M11.2386 5.86885L12 6.76291L12.7613 5.86885C13.6242 4.85565 14.9524 4.21411 16.32 4.21411C18.7245 4.21411 20.6 6.0896 20.6 8.49411C20.6 9.98003 19.9407 11.4064 18.5759 13.075C17.1996 14.7576 15.2124 16.5623 12.7203 18.8221L12.7188 18.8234L11.9974 19.4801L11.2805 18.8324C11.2801 18.8321 11.2797 18.8317 11.2793 18.8313C8.78751 16.5669 6.80055 14.7603 5.42426 13.0764C4.05924 11.4064 3.39999 9.98004 3.39999 8.49411C3.39999 6.0896 5.27548 4.21411 7.67999 4.21411C9.04761 4.21411 10.3758 4.85565 11.2386 5.86885Z" fill="#C4CDDF" stroke="#C4CDDF" stroke-width="2"/>
</svg>
