<svg width="20" height="19" viewBox="0 0 20 19" fill="none" xmlns="http://www.w3.org/2000/svg">
<path d="M9.23867 3.62202L10 4.51609L10.7614 3.62202C11.6242 2.60882 12.9524 1.96729 14.32 1.96729C16.7245 1.96729 18.6 3.84277 18.6 6.24729C18.6 7.7332 17.9408 9.15956 16.576 10.8282C15.1997 12.5108 13.2124 14.3155 10.7203 16.5753L10.7188 16.5766L9.99747 17.2333L9.28055 16.5856C9.28025 16.5853 9.27995 16.5851 9.27965 16.5848C6.78773 14.3203 4.80065 12.5135 3.42429 10.8296C2.05927 9.15962 1.40002 7.73322 1.40002 6.24729C1.40002 3.84277 3.27551 1.96729 5.68002 1.96729C7.04764 1.96729 8.37587 2.60882 9.23867 3.62202Z" fill="#E11E3E" stroke="#E11E3E" stroke-width="2"/>
</svg>
