<svg width="80" height="71" viewBox="0 0 80 71" fill="none" xmlns="http://www.w3.org/2000/svg">
<path opacity="0.3" d="M30.7456 68.9129C16.7813 68.9129 5.49096 57.6226 5.49096 43.6582C5.49096 29.6939 16.7813 18.4036 30.7456 18.4036C44.71 18.4036 56.0003 29.6939 56.0003 43.6582C56.0003 57.6226 44.5614 68.9129 30.7456 68.9129Z" fill="#C4CDDF"/>
<path d="M43.8889 30.1958C43.8889 32.3314 42.181 34.0627 40.0739 34.0627C37.9666 34.0627 36.2585 32.3314 36.2585 30.1958C36.2585 28.0602 37.9666 26.3289 40.0739 26.3289C42.181 26.3289 43.8889 28.0602 43.8889 30.1958Z" fill="#C4CDDF"/>
<path d="M26.8836 30.339L32.2172 37.9273L17.6024 60.9876L41.3303 37.2528L26.8836 30.339Z" fill="#C4CDDF"/>
<path d="M37.0919 43.9975L33.0602 47.8761L35.622 52.2183L26.5508 56.1389L41.6276 54.3262L37.0919 43.9975Z" fill="#C4CDDF"/>
<g opacity="0.45">
<path d="M42.1358 17.3746C44.9538 18.5787 47.5718 20.3038 49.8263 22.5681C51.2807 24.0416 52.4806 25.623 53.4806 27.2583L62.6073 22.0829C61.8437 20.9148 60.971 19.7467 59.9893 18.6146C56.0622 14.0681 51.6443 10.2404 45.4629 8.20976L42.1358 17.3746Z" fill="#C4CDDF"/>
<path d="M8.62872 25.2996C11.5922 22.2806 16.4646 18.8662 19.9917 17.3567C20.5916 17.1051 21.228 16.8535 21.8643 16.6379L18.719 10.2404C13.8466 12.7203 10.4468 16.0808 8.0833 19.0639C7.06518 20.3577 6.19251 21.6516 5.42892 22.9634L8.62872 25.2996Z" fill="#C4CDDF"/>
<path d="M43.1903 7.56285C41.0995 7.05968 38.8087 6.75419 36.2816 6.68231C30.0638 6.46666 24.9914 7.54488 20.8643 9.25207L24.1732 15.9909C29.2093 14.769 34.7908 14.8768 39.9177 16.548L43.1903 7.56285Z" fill="#C4CDDF"/>
<path d="M7.06516 27.0607L4.31987 25.048C-1.00708 36.0638 1.62912 46.5945 1.62912 46.5945H2.08364C2.08364 46.5945 0.011039 36.6209 7.01062 27.1505C7.0288 27.1326 7.04698 27.0966 7.06516 27.0607Z" fill="#C4CDDF"/>
<path d="M54.6078 29.325C58.8075 37.753 58.1166 46.5945 58.1166 46.5945H67.4979C67.4979 46.5945 70.025 35.3091 63.8254 24.0956L54.6078 29.325Z" fill="#C4CDDF"/>
</g>
<path d="M1.65427 46.7213H2.10862C2.10862 46.7213 1.96323 46.0364 1.89053 44.8469L1.32714 44.8289C1.47253 46.0364 1.65427 46.7213 1.65427 46.7213Z" fill="#E11E3E" stroke="#E11E3E" stroke-width="0.5"/>
<path d="M1.30896 44.8109L1.87236 44.8289C1.83601 44.2161 1.79966 43.4591 1.81784 42.594L1.0727 42.5579C1.1454 43.4411 1.21809 44.1981 1.30896 44.8109Z" fill="#E11E3E" stroke="#E11E3E" stroke-width="0.5"/>
<path d="M1.0727 42.576L1.81783 42.612C1.836 41.9271 1.87235 41.1701 1.96322 40.3591L1 40.2689C1 41.098 1.03635 41.873 1.0727 42.576Z" fill="#E11E3E" stroke="#E11E3E" stroke-width="0.5"/>
<path d="M1 40.2689L1.96322 40.341C2.03592 39.6381 2.14496 38.8991 2.29036 38.1061L1.0727 37.9439C1.01817 38.773 1 39.548 1 40.2689Z" fill="#E11E3E" stroke="#E11E3E" stroke-width="0.5"/>
<path d="M1.0727 37.9439L2.29036 38.1061C2.41758 37.3852 2.59932 36.6462 2.79923 35.8712L1.27261 35.6188C1.18174 36.4299 1.10905 37.2049 1.0727 37.9439Z" fill="#E11E3E" stroke="#E11E3E" stroke-width="0.5"/>
<path d="M1.27261 35.6189L2.79923 35.8712C2.98097 35.2224 3.19906 34.5375 3.43532 33.8706L1.59975 33.4741C1.47253 34.213 1.36348 34.934 1.27261 35.6189Z" fill="#E11E3E" stroke="#E11E3E" stroke-width="0.5"/>
<path d="M1.6179 33.492L3.45348 33.8886C3.68974 33.2577 3.94418 32.6089 4.25314 31.96L2.09043 31.4013C1.90869 32.0862 1.74512 32.7891 1.6179 33.492Z" fill="#E11E3E" stroke="#E11E3E" stroke-width="0.5"/>
<path d="M2.07225 31.3833L4.23496 31.942C4.52574 31.3292 4.8347 30.6984 5.18001 30.0676L2.67199 29.2926C2.4539 29.9955 2.25399 30.6984 2.07225 31.3833Z" fill="#E11E3E" stroke="#E11E3E" stroke-width="0.5"/>
<path d="M3.39898 27.31C3.14454 27.9768 2.90828 28.6257 2.69019 29.2926L5.19821 30.0676C5.50717 29.5269 5.8343 28.9681 6.19778 28.4274L3.39898 27.31Z" fill="#E11E3E" stroke="#E11E3E" stroke-width="0.5"/>
<path d="M7.01561 27.2198C7.03378 27.1838 7.07013 27.1658 7.0883 27.1297L4.34403 25.1111C3.99872 25.8501 3.67159 26.571 3.3808 27.2919L6.16143 28.4094C6.45221 28.0309 6.72482 27.6344 7.01561 27.2198Z" fill="#E11E3E" stroke="#E11E3E" stroke-width="0.5"/>
<path d="M5.47081 23.0204L8.65127 25.3634C8.92388 25.0751 9.21466 24.8047 9.52362 24.5163L6.28864 21.6686C5.99786 22.1192 5.72525 22.5698 5.47081 23.0204Z" fill="#E11E3E" stroke="#E11E3E" stroke-width="0.5"/>
<path d="M6.28865 21.6686L9.52363 24.5163C9.94163 24.1198 10.396 23.7233 10.8685 23.3268L7.3064 20.1907C6.94292 20.6773 6.61578 21.164 6.28865 21.6686Z" fill="#E11E3E" stroke="#E11E3E" stroke-width="0.5"/>
<path d="M8.10603 19.1092C7.83342 19.4697 7.56081 19.8122 7.30637 20.1726L10.8685 23.3087C11.3228 22.9302 11.7772 22.5517 12.2679 22.1732L8.45134 18.6947C8.34229 18.8389 8.21507 18.9651 8.10603 19.1092Z" fill="#E11E3E" stroke="#E11E3E" stroke-width="0.5"/>
<path d="M8.45136 18.6947L12.2497 22.1913C12.7041 21.8488 13.1584 21.4883 13.631 21.1639L9.72354 17.1987C9.28737 17.7034 8.85119 18.19 8.45136 18.6947Z" fill="#E11E3E" stroke="#E11E3E" stroke-width="0.5"/>
<path d="M9.74172 17.1987L13.6491 21.1639C14.1398 20.8215 14.6305 20.479 15.1212 20.1366L11.0684 15.7929C10.5959 16.2615 10.1597 16.7301 9.74172 17.1987Z" fill="#E11E3E" stroke="#E11E3E" stroke-width="0.5"/>
<path d="M11.0684 15.7929L15.1031 20.1366C15.5574 19.8302 16.0299 19.5418 16.4843 19.2535L12.4133 14.5493C11.9408 14.9638 11.5046 15.3784 11.0684 15.7929Z" fill="#E11E3E" stroke="#E11E3E" stroke-width="0.5"/>
<path d="M12.4133 14.5493L16.4843 19.2535C16.9568 18.9651 17.4293 18.6947 17.8837 18.4424L13.7945 13.3958C13.322 13.7743 12.8676 14.1708 12.4133 14.5493Z" fill="#E11E3E" stroke="#E11E3E" stroke-width="0.5"/>
<path d="M13.8127 13.3958L17.9018 18.4424C18.4107 18.172 18.8832 17.9197 19.3558 17.7034L15.3211 12.2963C14.7941 12.6568 14.2852 13.0173 13.8127 13.3958Z" fill="#E11E3E" stroke="#E11E3E" stroke-width="0.5"/>
<path d="M20.7006 17.1266L16.9204 11.269C16.3752 11.5934 15.83 11.9359 15.3211 12.2963L19.3558 17.7034C19.5739 17.5953 19.7919 17.5051 20.01 17.415C20.2463 17.3069 20.4826 17.2168 20.7006 17.1266Z" fill="#E11E3E" stroke="#E11E3E" stroke-width="0.5"/>
<path d="M21.882 16.6941L18.7379 10.2597C18.1018 10.5841 17.502 10.9265 16.9023 11.269L20.7007 17.1267C21.1005 16.9644 21.4821 16.8203 21.882 16.6941Z" fill="#E11E3E" stroke="#E11E3E" stroke-width="0.5"/>
<path d="M20.8824 9.26835L24.1901 16.0272C24.5354 15.9371 24.8807 15.865 25.2442 15.7929L22.9906 8.49333C22.2636 8.72764 21.5548 8.97997 20.8824 9.26835Z" fill="#E11E3E" stroke="#E11E3E" stroke-width="0.5"/>
<path d="M22.9724 8.47535L25.226 15.7749C25.644 15.6848 26.0802 15.6127 26.4982 15.5406L24.9897 7.88057C24.2991 8.06081 23.6267 8.25906 22.9724 8.47535Z" fill="#E11E3E" stroke="#E11E3E" stroke-width="0.5"/>
<path d="M24.9897 7.88053L26.4981 15.5586C27.0797 15.4685 27.6431 15.3964 28.2247 15.3423L27.2978 7.35785C26.5163 7.50204 25.7348 7.68227 24.9897 7.88053Z" fill="#E11E3E" stroke="#E11E3E" stroke-width="0.5"/>
<path d="M27.316 7.35789L28.2429 15.3423C28.8063 15.2883 29.3878 15.2522 29.9512 15.2342L29.5514 6.99742C28.7881 7.08754 28.0429 7.2137 27.316 7.35789Z" fill="#E11E3E" stroke="#E11E3E" stroke-width="0.5"/>
<path d="M29.5514 6.99741L29.9512 15.2342C30.6055 15.2162 31.2597 15.1981 31.914 15.2162L31.8958 6.76311C31.078 6.81718 30.2965 6.88927 29.5514 6.99741Z" fill="#E11E3E" stroke="#E11E3E" stroke-width="0.5"/>
<path d="M31.8958 6.76309L31.914 15.2162C32.5501 15.2342 33.168 15.2702 33.8041 15.3243L34.0222 6.65495C33.2952 6.67298 32.5865 6.70902 31.8958 6.76309Z" fill="#E11E3E" stroke="#E11E3E" stroke-width="0.5"/>
<path d="M36.2758 6.67298C35.5125 6.65495 34.7673 6.65495 34.0222 6.65495L33.8041 15.3243C34.4766 15.3784 35.1308 15.4685 35.7851 15.5766L36.294 6.67298C36.294 6.67298 36.294 6.67298 36.2758 6.67298Z" fill="#E11E3E" stroke="#E11E3E" stroke-width="0.5"/>
<path d="M36.294 6.67328L35.7851 15.5769C36.3121 15.667 36.8392 15.7572 37.348 15.8833L38.384 6.79944C37.7115 6.74537 37.0209 6.70933 36.294 6.67328Z" fill="#E11E3E" stroke="#E11E3E" stroke-width="0.5"/>
<path d="M38.384 6.79913L37.348 15.883C37.7842 15.9731 38.2386 16.0993 38.6747 16.2074L40.7829 7.08751C40.0014 6.96135 39.2018 6.87123 38.384 6.79913Z" fill="#E11E3E" stroke="#E11E3E" stroke-width="0.5"/>
<path d="M43.2001 7.57413C42.4186 7.39389 41.6189 7.23168 40.7829 7.08749L38.6747 16.2074C39.0927 16.3156 39.5107 16.4417 39.9287 16.5859L43.2001 7.57413Z" fill="#E11E3E" stroke="#E11E3E" stroke-width="0.5"/>
<path d="M45.4718 8.22299L42.146 17.433C42.5095 17.5953 42.8548 17.7575 43.2183 17.9197L47.6346 9.03405C46.9258 8.72765 46.217 8.4573 45.4718 8.22299Z" fill="#E11E3E" stroke="#E11E3E" stroke-width="0.5"/>
<path d="M47.6164 9.01607L43.2001 17.9017C43.5817 18.0819 43.9634 18.2802 44.3269 18.4965L49.7064 10.0074C49.0339 9.66492 48.3433 9.32247 47.6164 9.01607Z" fill="#E11E3E" stroke="#E11E3E" stroke-width="0.5"/>
<path d="M49.7064 10.0073L44.3451 18.4964C44.7812 18.7307 45.1992 18.9831 45.6172 19.2534L51.7055 11.1789C51.0513 10.7643 50.3788 10.3678 49.7064 10.0073Z" fill="#E11E3E" stroke="#E11E3E" stroke-width="0.5"/>
<path d="M51.6873 11.1789L45.5991 19.2534C46.0352 19.5238 46.4714 19.8122 46.8894 20.1186L53.4684 12.4045C52.905 11.9719 52.3053 11.5754 51.6873 11.1789Z" fill="#E11E3E" stroke="#E11E3E" stroke-width="0.5"/>
<path d="M53.4866 12.4045L46.9076 20.1186C47.3438 20.443 47.7799 20.7674 48.1979 21.1279L55.0677 13.6661C54.5407 13.2336 54.0136 12.819 53.4866 12.4045Z" fill="#E11E3E" stroke="#E11E3E" stroke-width="0.5"/>
<path d="M55.0496 13.6661L48.1798 21.1279C48.6159 21.4884 49.0339 21.8669 49.4519 22.2814L56.6125 15.072C56.1037 14.5853 55.5948 14.1167 55.0496 13.6661Z" fill="#E11E3E" stroke="#E11E3E" stroke-width="0.5"/>
<path d="M56.6125 15.072L49.4519 22.2634C49.5792 22.3715 49.6882 22.4977 49.8154 22.6239C50.1244 22.9483 50.4152 23.2547 50.7059 23.5791L58.2481 16.7301C57.7393 16.1714 57.1759 15.6127 56.6125 15.072Z" fill="#E11E3E" stroke="#E11E3E" stroke-width="0.5"/>
<path d="M58.2664 16.7482L50.7241 23.5971C51.1058 24.0117 51.4511 24.4442 51.7964 24.8768L59.8475 18.4604C59.3204 17.8837 58.7934 17.3069 58.2664 16.7482Z" fill="#E11E3E" stroke="#E11E3E" stroke-width="0.5"/>
<path d="M61.3014 20.2988C60.8834 19.7581 60.4473 19.1993 59.9929 18.6767C59.9384 18.6046 59.8839 18.5505 59.8293 18.4784L51.7782 24.8948C52.1235 25.3274 52.4325 25.7779 52.7415 26.2285L61.3014 20.2988Z" fill="#E11E3E" stroke="#E11E3E" stroke-width="0.5"/>
<path d="M53.4684 27.346L62.6099 22.1372C62.2101 21.5244 61.7739 20.8935 61.3014 20.2807L52.7414 26.2105C53.0141 26.589 53.2503 26.9675 53.4684 27.346Z" fill="#E11E3E" stroke="#E11E3E" stroke-width="0.5"/>
<path d="M63.8276 24.1559L54.6134 29.4007C54.7951 29.7792 54.9769 30.1397 55.1404 30.5182L64.8635 26.1925C64.5364 25.5257 64.1911 24.8408 63.8276 24.1559Z" fill="#E11E3E" stroke="#E11E3E" stroke-width="0.5"/>
<path d="M64.8453 26.1925L55.1223 30.5182C55.2858 30.8967 55.4494 31.2752 55.5948 31.6537L65.7904 28.4815C65.5178 27.7245 65.2088 26.9675 64.8453 26.1925Z" fill="#E11E3E" stroke="#E11E3E" stroke-width="0.5"/>
<path d="M65.8086 28.4815L55.6129 31.6536C55.8492 32.2484 56.0673 32.8432 56.2672 33.42L66.6082 30.8606C66.372 30.0856 66.0994 29.2925 65.8086 28.4815Z" fill="#E11E3E" stroke="#E11E3E" stroke-width="0.5"/>
<path d="M66.5901 30.8606L56.249 33.42C56.4308 33.9787 56.5943 34.5194 56.7579 35.0601L67.1535 33.0775C67.0081 32.3746 66.8081 31.6176 66.5901 30.8606Z" fill="#E11E3E" stroke="#E11E3E" stroke-width="0.5"/>
<path d="M67.1716 33.0955L56.7761 35.0781C56.9578 35.709 57.1032 36.3218 57.2305 36.9165L67.5896 35.4026C67.4806 34.6636 67.3352 33.8886 67.1716 33.0955Z" fill="#E11E3E" stroke="#E11E3E" stroke-width="0.5"/>
<path d="M67.5896 35.4025L57.2304 36.9165C57.3758 37.5654 57.503 38.2142 57.6121 38.827L67.8804 37.7456C67.8077 36.9886 67.7168 36.2136 67.5896 35.4025Z" fill="#E11E3E" stroke="#E11E3E" stroke-width="0.5"/>
<path d="M67.8622 37.7456L57.5939 38.827C57.7211 39.53 57.812 40.2149 57.8847 40.8457L67.9894 39.9806C67.9713 39.2776 67.9349 38.5387 67.8622 37.7456Z" fill="#E11E3E" stroke="#E11E3E" stroke-width="0.5"/>
<path d="M67.9894 39.9986L57.8847 40.8637C57.9756 41.5667 58.0301 42.2335 58.0664 42.8463L67.9713 42.3777C68.0076 41.6387 68.0076 40.8457 67.9894 39.9986Z" fill="#E11E3E" stroke="#E11E3E" stroke-width="0.5"/>
<path d="M67.9713 42.3596L58.0664 42.8283C58.121 43.5672 58.1391 44.2161 58.1391 44.7748L67.8077 44.5585C67.8804 43.9277 67.9349 43.2068 67.9713 42.3596Z" fill="#E11E3E" stroke="#E11E3E" stroke-width="0.5"/>
<path d="M58.1391 44.7748C58.1573 46.0004 58.1028 46.7214 58.1028 46.7214H67.4806C67.4806 46.7214 67.6623 45.9283 67.8077 44.5585L58.1391 44.7748Z" fill="#E11E3E" stroke="#E11E3E" stroke-width="0.5"/>
<circle cx="10.768" cy="60.0162" r="3.11828" fill="#7CC076" stroke="#C4CDDF"/>
<path d="M46.5928 57.011C46.5928 55.9064 47.4882 55.011 48.5928 55.011H67.3892C68.4938 55.011 69.3892 55.9064 69.3892 57.011V68.8994C69.3892 70.0039 68.4938 70.8994 67.3892 70.8994H48.5928C47.4883 70.8994 46.5928 70.0039 46.5928 68.8994V57.011Z" fill="#E11E3E"/>
<path d="M47.9011 67.4552V59.6072H50.3731C50.8051 59.6072 51.2051 59.6472 51.5731 59.7272C51.9491 59.8072 52.2731 59.9432 52.5451 60.1352C52.8171 60.3272 53.0291 60.5792 53.1811 60.8912C53.3331 61.1952 53.4091 61.5752 53.4091 62.0312C53.4091 62.4632 53.3331 62.8392 53.1811 63.1592C53.0291 63.4792 52.8171 63.7472 52.5451 63.9632C52.2811 64.1712 51.9651 64.3272 51.5971 64.4312C51.2371 64.5272 50.8451 64.5752 50.4211 64.5752H49.2931V67.4552H47.9011ZM49.2931 63.4592H50.3131C51.4651 63.4592 52.0411 62.9832 52.0411 62.0312C52.0411 61.5352 51.8891 61.1952 51.5851 61.0112C51.2891 60.8192 50.8491 60.7232 50.2651 60.7232H49.2931V63.4592ZM54.8855 67.4552V59.6072H57.5375C57.9455 59.6072 58.3255 59.6472 58.6775 59.7272C59.0295 59.8072 59.3335 59.9392 59.5895 60.1232C59.8455 60.2992 60.0455 60.5352 60.1895 60.8312C60.3415 61.1272 60.4175 61.4952 60.4175 61.9352C60.4175 62.5352 60.2735 63.0192 59.9855 63.3872C59.7055 63.7552 59.3295 64.0192 58.8575 64.1792L60.7295 67.4552H59.1695L57.4775 64.3832H56.2775V67.4552H54.8855ZM56.2775 63.2792H57.3935C57.9295 63.2792 58.3375 63.1672 58.6175 62.9432C58.9055 62.7192 59.0495 62.3832 59.0495 61.9352C59.0495 61.4792 58.9055 61.1632 58.6175 60.9872C58.3375 60.8112 57.9295 60.7232 57.3935 60.7232H56.2775V63.2792ZM65.035 67.5992C64.523 67.5992 64.055 67.5072 63.631 67.3232C63.207 67.1312 62.843 66.8592 62.539 66.5072C62.235 66.1472 61.999 65.7152 61.831 65.2112C61.663 64.7072 61.579 64.1352 61.579 63.4952C61.579 62.8632 61.663 62.2992 61.831 61.8032C61.999 61.2992 62.235 60.8752 62.539 60.5312C62.843 60.1872 63.207 59.9232 63.631 59.7392C64.055 59.5552 64.523 59.4632 65.035 59.4632C65.547 59.4632 66.015 59.5552 66.439 59.7392C66.863 59.9232 67.227 60.1872 67.531 60.5312C67.843 60.8752 68.083 61.2992 68.251 61.8032C68.419 62.2992 68.503 62.8632 68.503 63.4952C68.503 64.1352 68.419 64.7072 68.251 65.2112C68.083 65.7152 67.843 66.1472 67.531 66.5072C67.227 66.8592 66.863 67.1312 66.439 67.3232C66.015 67.5072 65.547 67.5992 65.035 67.5992ZM65.035 66.3872C65.347 66.3872 65.627 66.3192 65.875 66.1832C66.123 66.0472 66.335 65.8552 66.511 65.6072C66.687 65.3512 66.823 65.0472 66.919 64.6952C67.015 64.3352 67.063 63.9352 67.063 63.4952C67.063 62.6152 66.879 61.9272 66.511 61.4312C66.151 60.9272 65.659 60.6752 65.035 60.6752C64.411 60.6752 63.915 60.9272 63.547 61.4312C63.187 61.9272 63.007 62.6152 63.007 63.4952C63.007 63.9352 63.055 64.3352 63.151 64.6952C63.247 65.0472 63.383 65.3512 63.559 65.6072C63.735 65.8552 63.947 66.0472 64.195 66.1832C64.443 66.3192 64.723 66.3872 65.035 66.3872Z" fill="white"/>
<g clip-path="url(#clip0)">
<path d="M79.4964 10.8012L77.5699 8.59337L77.8392 5.67029C77.891 5.15201 77.5389 4.67519 77.0417 4.56117L74.1832 3.91851L72.6918 1.38931C72.4225 0.943593 71.8736 0.757013 71.3868 0.964324L68.7043 2.1149L66.0219 0.964324C65.5454 0.757013 64.9862 0.943593 64.7272 1.38931L63.2255 3.90814L60.3773 4.55081C59.8698 4.66483 59.5176 5.13128 59.5694 5.64955L59.8387 8.58301L57.902 10.8012C57.5602 11.1951 57.5602 11.7756 57.902 12.1695L59.8387 14.3774L59.5694 17.3108C59.5176 17.8291 59.8698 18.3059 60.3669 18.4199L63.2255 19.0729L64.7169 21.5918C64.9862 22.0375 65.5454 22.2241 66.0219 22.0168L68.7043 20.8455L71.3868 21.996C71.8632 22.2033 72.4225 22.0168 72.6814 21.571L74.1728 19.0522L77.0314 18.3992C77.5389 18.2852 77.8807 17.8083 77.8289 17.2901L77.5596 14.367L79.486 12.1591C79.6548 11.9739 79.7493 11.7328 79.7512 11.4822C79.7531 11.2315 79.6623 10.989 79.4964 10.8012Z" fill="#C4E8C1"/>
<path d="M64.7194 11.4905L67.3721 14.1432L72.6774 8.83788" stroke="#7CC076" stroke-width="2.5" stroke-linecap="round" stroke-linejoin="round"/>
</g>
<defs>
<clipPath id="clip0">
<rect width="22.1056" height="22.1056" fill="white" transform="translate(57.6456 0.437744)"/>
</clipPath>
</defs>
</svg>
