<svg width="21" height="21" fill="none" xmlns="http://www.w3.org/2000/svg"><path d="M9.04 16.764c0 1.038-.83 1.889-1.89 1.889a1.883 1.883 0 01-1.888-1.89c0-1.037.83-1.888 1.889-1.888 1.059 0 1.889.85 1.889 1.889zm-1.386-3.778H6.629a.867.867 0 01-.865-.827L5.428 4.82a.867.867 0 01.865-.906h1.713c.495 0 .89.414.866.908l-.353 7.339a.867.867 0 01-.865.825zm7.406 3.778c0 1.038-.83 1.889-1.89 1.889a1.883 1.883 0 01-1.888-1.89c0-1.037.83-1.888 1.889-1.888 1.059 0 1.889.85 1.889 1.889zm-1.386-3.778h-1.025a.866.866 0 01-.865-.827l-.336-7.339a.866.866 0 01.865-.906h1.713c.495 0 .89.414.866.908l-.353 7.339a.867.867 0 01-.865.825z" fill="#C4CDDF"/></svg>