<svg width="16" height="17" fill="none" xmlns="http://www.w3.org/2000/svg"><ellipse rx="3.279" ry="3.666" transform="matrix(-1 0 0 1 8.215 10.104)" fill="#F3F5F9"/><path d="M1.428 9.154a4.96 4.96 0 011.069-1.585A4.982 4.982 0 014.082 6.5l.016-.007a3.289 3.289 0 113.852.001l.015.007c.594.251 1.128.61 1.585 1.07.455.454.818.992 1.07 1.584.242.573.314.922.349 1.276.017.176-.093.394-.093.394l-.257.167h-.617s0-1.61-1.164-2.71a3.953 3.953 0 00-2.815-1.165c-1.063 0-1.735.117-2.814 1.166-1.079 1.048-1.165 2.71-1.165 2.71l-.839-.005-.093-.001s-.07-.107-.052-.28c.04-.361.137-1.007.368-1.553zm4.595-3.045c.61 0 1.182-.238 1.613-.669a2.266 2.266 0 00.669-1.613c0-.608-.238-1.181-.669-1.612a2.266 2.266 0 00-1.613-.669c-.608 0-1.181.238-1.612.669a2.266 2.266 0 00-.669 1.612c0 .61.238 1.182.669 1.613a2.266 2.266 0 001.612.669z" fill="#408AC9"/><path fill-rule="evenodd" clip-rule="evenodd" d="M10.823 10.728s.042-.108.025-.285c-.035-.353.014-.715-.229-1.288A4.982 4.982 0 009.55 7.57a4.938 4.938 0 00-1.6-1.075 3.29 3.29 0 00.026-.02l.004-.003a3.295 3.295 0 001.333-2.645 3.289 3.289 0 10-5.246 2.644l.003.003.028.02a.081.081 0 01-.008.003c-.003 0-.006.002-.008.003a5 5 0 00-2.654 2.654c-.23.546-.328 1.192-.368 1.553a.45.45 0 00.054.28h.091l.84.005s.085-1.66 1.164-2.71c1.079-1.048 1.75-1.165 2.814-1.165s2.063.414 2.815 1.166c1.164 1.098 1.164 2.71 1.164 2.71l.821-.265zm-.96.264v.14l1.055-.265.034-.088-.129-.05.13.05v-.004l.003-.007a.667.667 0 00.022-.093.92.92 0 00.008-.246c-.036-.359.011-.736-.239-1.328a5.122 5.122 0 00-1.099-1.629c-.419-.42-.9-.759-1.43-1.01a3.428 3.428 0 10-4.388-.001 5.12 5.12 0 00-1.431 1.01 5.1 5.1 0 00-1.1 1.629c-.238.565-.337 1.227-.377 1.592-.011.108-.02 2.466 0 2.53a.531.531 0 00.043.097l.004.007.002.003v.001l.143-2.342-.143 2.342.041.063.167.001.973.005.031-2.4v-.003l.001-.013.004-.051c.005-.046.012-.112.024-.196.024-.167.067-.401.143-.667.153-.534.435-1.186.95-1.687.532-.516.954-.794 1.365-.945.412-.152.825-.181 1.353-.181 1.027 0 1.99.399 2.717 1.125l.003.003c.557.526.838 1.177.98 1.701a4.32 4.32 0 01.139.843l.001.05v.013zm-2.325-5.65a2.128 2.128 0 01-1.515.628c-.572 0-1.11-.223-1.514-.628a2.128 2.128 0 01-.628-1.515c0-.571.223-1.11.628-1.514a2.128 2.128 0 011.514-.628c.572 0 1.11.223 1.515.628.405.405.628.943.628 1.514 0 .572-.223 1.11-.628 1.515zm.098.098a2.267 2.267 0 01-1.613.669 2.267 2.267 0 01-1.612-.669 2.267 2.267 0 01-.669-1.613c0-.608.238-1.181.669-1.612a2.267 2.267 0 011.612-.669c.61 0 1.182.238 1.613.669.431.43.669 1.004.669 1.612 0 .61-.238 1.182-.669 1.613z" fill="#408AC9"/><circle cx="10.571" cy="11.583" r="4.557" fill="#F3F5F9"/><path d="M6.876 10.992h4.938" stroke="#408AC9" stroke-width="1.219" stroke-linecap="round"/><path d="M10.317 9.013l1.98 1.98-1.98 1.979" stroke="#408AC9" stroke-width="1.219" stroke-linecap="round" stroke-linejoin="round"/></svg>