<svg width="12" height="16" fill="none" xmlns="http://www.w3.org/2000/svg"><mask id="a" fill="#fff"><path fill-rule="evenodd" clip-rule="evenodd" d="M7.219 14.537a14.626 14.626 0 001.807-1.665c1.306-1.428 2.687-3.558 2.687-6.196C11.713 3.435 9.148.963 6 .963S.288 3.435.288 6.676c0 2.638 1.38 4.768 2.686 6.196a14.629 14.629 0 001.806 1.665c.92.714 1.493.736 2.439 0zM6 3.758A2.856 2.856 0 106 9.47a2.856 2.856 0 000-5.713z"/></mask><path fill-rule="evenodd" clip-rule="evenodd" d="M7.219 14.537a14.626 14.626 0 001.807-1.665c1.306-1.428 2.687-3.558 2.687-6.196C11.713 3.435 9.148.963 6 .963S.288 3.435.288 6.676c0 2.638 1.38 4.768 2.686 6.196a14.629 14.629 0 001.806 1.665c.92.714 1.493.736 2.439 0zM6 3.758A2.856 2.856 0 106 9.47a2.856 2.856 0 000-5.713z" fill="#767D86"/><path d="M9.026 12.872l.885.812v-.002l-.885-.81zM7.22 14.537l-.736-.947.736.947zm-4.245-1.665l-.886.81.001.001.885-.81zm1.806 1.665l-.736.948.736-.947zm-.8-9.943l-.848-.849.848.849zm4.04 0l.848-.849-.848.849zm.122 7.467a13.434 13.434 0 01-1.66 1.529l1.473 1.895a15.828 15.828 0 001.956-1.801L8.14 12.06zm2.37-5.385c0 2.21-1.16 4.061-2.372 5.387l1.772 1.619c1.4-1.532 3-3.94 3-7.006h-2.4zM6 2.163c2.498 0 4.512 1.947 4.512 4.513h2.4C12.912 2.759 9.797-.237 6-.237v2.4zM1.488 6.676C1.488 4.11 3.502 2.163 6 2.163v-2.4C2.203-.237-.912 2.76-.912 6.676h2.4zm2.372 5.387c-1.212-1.326-2.372-3.177-2.372-5.387h-2.4c0 3.066 1.6 5.474 3 7.006l1.772-1.62zm1.657 1.527a13.42 13.42 0 01-1.659-1.529L2.09 13.683a15.83 15.83 0 001.955 1.802l1.473-1.895zm.966 0c-.405.314-.517.29-.485.29.028.001-.082.02-.482-.29l-1.471 1.896c.52.403 1.156.79 1.936.795.785.005 1.433-.375 1.974-.796L6.483 13.59zM4.829 5.442c.31-.31.732-.485 1.171-.485v-2.4a4.056 4.056 0 00-2.868 1.188l1.697 1.697zm-.485 1.172c0-.44.174-.86.485-1.172L3.132 3.745a4.056 4.056 0 00-1.188 2.869h2.4zm.485 1.17a1.656 1.656 0 01-.485-1.17h-2.4c0 1.075.427 2.107 1.188 2.868l1.697-1.697zM6 8.27c-.44 0-.86-.175-1.171-.485L3.132 9.482A4.056 4.056 0 006 10.67v-2.4zm1.171-.485c-.31.31-.732.485-1.171.485v2.4a4.056 4.056 0 002.868-1.188L7.171 7.785zm.485-1.171c0 .439-.174.86-.485 1.17l1.697 1.698a4.056 4.056 0 001.188-2.868h-2.4zm-.485-1.172c.31.311.485.732.485 1.172h2.4a4.056 4.056 0 00-1.188-2.869L7.171 5.442zM6 4.957c.44 0 .86.175 1.171.485l1.697-1.697A4.056 4.056 0 006 2.557v2.4z" fill="#767D86" mask="url(#a)"/></svg>