<svg width="13" height="14" fill="none" xmlns="http://www.w3.org/2000/svg"><path d="M4.367 4.965l.36-.023.148-.33 1.556-3.473a.107.107 0 01.042-.052.121.121 0 01.064-.016c.026 0 .048.007.063.017a.107.107 0 01.042.053l1.481 3.461.145.34.368.023 3.56.23a.107.107 0 01.064.022c.014.012.029.03.037.055a.12.12 0 01.006.066.108.108 0 01-.036.057l-2.809 2.6-.274.255.107.358 1.122 3.754c.011.037.006.058.001.071a.123.123 0 01-.044.055.124.124 0 01-.066.025.111.111 0 01-.068-.024l-3.34-2.36-.35-.248-.348.253-3.356 2.443a.107.107 0 01-.066.024.124.124 0 01-.065-.021.123.123 0 01-.046-.052.106.106 0 01-.003-.07l.862-3.892.072-.325-.237-.233L.704 5.396a.107.107 0 01-.033-.057.121.121 0 01.006-.065.121.121 0 01.038-.054.102.102 0 01.063-.021l3.589-.234z" stroke="#E11E3E" stroke-width="1.2" stroke-linecap="round"/></svg>