<svg width="15" height="17" fill="none" xmlns="http://www.w3.org/2000/svg"><ellipse cx="7.16" cy="10.104" rx="3.279" ry="3.666" fill="#F3F5F9"/><path d="M13.948 9.154a4.961 4.961 0 00-1.07-1.585A4.983 4.983 0 0011.295 6.5l-.016-.007a3.289 3.289 0 10-3.852.001l-.016.007a4.936 4.936 0 00-1.585 1.07 4.982 4.982 0 00-1.069 1.584c-.242.573-.314.922-.35 1.276-.017.176.093.394.093.394l.257.167h.617s0-1.61 1.165-2.71a3.953 3.953 0 012.814-1.165c1.064 0 1.736.117 2.815 1.166 1.079 1.048 1.164 2.71 1.164 2.71l.84-.005.092-.001s.07-.107.052-.28c-.039-.361-.137-1.007-.367-1.553zM9.352 6.109A2.267 2.267 0 017.74 5.44a2.266 2.266 0 01-.668-1.613c0-.608.237-1.181.668-1.612a2.267 2.267 0 011.613-.669c.609 0 1.182.238 1.613.669.431.43.668 1.004.668 1.612 0 .61-.237 1.182-.668 1.613a2.267 2.267 0 01-1.613.669z" fill="#408AC9"/><path fill-rule="evenodd" clip-rule="evenodd" d="M4.553 10.728s-.043-.108-.025-.285c.035-.353-.014-.715.228-1.288a4.99 4.99 0 011.07-1.585 4.938 4.938 0 011.6-1.075 3.29 3.29 0 01-.027-.02l-.003-.003a3.285 3.285 0 01-1.333-2.645 3.289 3.289 0 115.245 2.644l-.003.003a3.036 3.036 0 01-.027.02.082.082 0 00.008.003c.003 0 .005.002.008.003l.13.058a4.98 4.98 0 011.455 1.011 4.96 4.96 0 011.069 1.585c.23.546.328 1.192.367 1.553a.449.449 0 01-.053.28h-.091l-.84.005s-.085-1.66-1.164-2.71c-1.08-1.048-1.751-1.165-2.815-1.165a3.953 3.953 0 00-2.814 1.166c-1.165 1.098-1.165 2.71-1.165 2.71l-.82-.265zm.959.264v.14l-1.054-.265-.035-.088.13-.05-.13.05v-.002l-.001-.002-.003-.007a.481.481 0 01-.022-.093.925.925 0 01-.007-.246c.035-.359-.012-.736.239-1.328a5.121 5.121 0 011.098-1.629c.42-.42.9-.759 1.431-1.01a3.428 3.428 0 114.388-.001 5.12 5.12 0 011.431 1.01A5.1 5.1 0 0114.076 9.1c.238.565.338 1.227.377 1.592.012.108.02 2.466 0 2.53a.528.528 0 01-.042.097l-.004.007-.002.003v.001l-.143-2.342.142 2.342-.04.063-.168.001-.972.005-.031-2.4v-.003l-.001-.013-.005-.051a5.103 5.103 0 00-.167-.863c-.153-.534-.435-1.186-.95-1.687-.531-.516-.953-.794-1.364-.945-.412-.152-.826-.181-1.354-.181-1.027 0-1.99.399-2.716 1.125l-.003.003c-.558.526-.839 1.177-.98 1.701a4.32 4.32 0 00-.139.843 1.946 1.946 0 00-.002.05v.013zm2.326-5.65c.405.405.942.628 1.514.628.572 0 1.11-.223 1.515-.628.405-.405.628-.943.628-1.515 0-.571-.223-1.11-.628-1.514a2.128 2.128 0 00-1.515-.628c-.572 0-1.11.223-1.514.628a2.128 2.128 0 00-.628 1.514c0 .572.222 1.11.628 1.515zm-.099.098a2.267 2.267 0 001.613.669c.609 0 1.182-.238 1.613-.669a2.266 2.266 0 00.668-1.613c0-.608-.237-1.181-.668-1.612a2.266 2.266 0 00-1.613-.669c-.609 0-1.182.238-1.613.669a2.267 2.267 0 00-.668 1.612c0 .61.237 1.182.668 1.613z" fill="#408AC9"/><circle r="4.557" transform="matrix(-1 0 0 1 4.804 11.583)" fill="#F3F5F9"/><path d="M8.5 10.992H3.561" stroke="#408AC9" stroke-width="1.219" stroke-linecap="round"/><path d="M5.058 9.013l-1.98 1.98 1.98 1.979" stroke="#408AC9" stroke-width="1.219" stroke-linecap="round" stroke-linejoin="round"/></svg>