<svg width="8" height="11" fill="none" xmlns="http://www.w3.org/2000/svg"><path d="M1.184 10.438V7.974H.096v-.896l1.088-.08v-.88H.096v-.896l1.088-.08V.262h2.32c.501 0 .97.058 1.408.176.437.106.816.277 1.136.512.33.224.587.522.768.896.192.362.288.8.288 1.312 0 .522-.096.97-.288 1.344a2.645 2.645 0 01-.784.928c-.33.234-.715.41-1.152.528a5.66 5.66 0 01-1.376.16h-.576v.864h3.184v.992H2.928v2.464H1.184zm1.744-5.312h.464c.63 0 1.115-.16 1.456-.48.352-.32.528-.784.528-1.392 0-.65-.176-1.115-.528-1.392-.341-.278-.827-.416-1.456-.416h-.464v3.68z" fill="#4A80AA"/></svg>