<svg width="29" height="29" fill="none" xmlns="http://www.w3.org/2000/svg"><path d="M2.25 8.335a3.063 3.063 0 013.063-3.063h18.375a3.062 3.062 0 013.062 3.063v4.097a4.395 4.395 0 00-.492-.214l-.017-.007-.206-.068-.645-.195a3.102 3.102 0 00-.39-.09V8.334a1.313 1.313 0 00-1.313-1.313H5.313A1.313 1.313 0 004 8.335V19.71a1.313 1.313 0 001.313 1.312H9.25l8.386.082-1.204 1.668H5.312A3.063 3.063 0 012.25 19.71V8.335zm20.725 5.698a1.75 1.75 0 012.036-.828l.628.189.168.056a3.064 3.064 0 011.979 2.441c.26 1.81-.321 3.925-1.722 6.352-1.397 2.42-2.936 3.98-4.629 4.662a3.062 3.062 0 01-3.25-.617l-.475-.45-.106-.11a1.75 1.75 0 01-.11-2.185l1.188-1.645.08-.1a1.313 1.313 0 011.367-.386l1.794.548.047.009h.038c.214-.024.65-.457 1.185-1.384.595-1.031.718-1.634.554-1.79l-.913-.85-.116-.117a2.184 2.184 0 01-.387-2.378l.58-1.287.064-.13z" fill="#fff"/><g clip-path="url(#clip0)"><path fill-rule="evenodd" clip-rule="evenodd" d="M13.9 10.805c.154.274.309.528.463.763l-.884.59a.525.525 0 00.583.873l.93-.62c.215.25.43.464.647.64l-.76.506a.525.525 0 00.583.874l1.226-.818.004-.002c.162.04.324.061.487.061.628 0 1.18.121 1.656.364.475.242.834.547 1.077.915.242.368.422.736.538 1.104a3.5 3.5 0 01.175 1.063v.9c0 .305-.112.57-.336.794a1.117 1.117 0 01-.822.337H7.999c-.323 0-.597-.113-.82-.337a1.086 1.086 0 01-.337-.794v-.9h.296c-.557-1.902-.422-3.356.404-4.361.305-.539.457-1.58.457-3.123 0-.305.112-.57.337-.795.224-.224.489-.336.794-.336h2.88c.45 0 .79.188 1.024.565.018.036.04.09.067.162a1.5 1.5 0 00.175.35c.048.103.096.203.144.302a.525.525 0 00-.113.058l-1.227.817a.525.525 0 00.583.874l1.226-.818.012-.008zm-2.375 4.267a1.05 1.05 0 11-2.1 0 1.05 1.05 0 012.1 0z" fill="#fff"/></g><defs><clipPath id="clip0"><path fill="#fff" transform="translate(6.625 7.022)" d="M0 0h14v14H0z"/></clipPath></defs></svg>