<svg width="41" height="41" fill="none" xmlns="http://www.w3.org/2000/svg"><circle cx="20.125" cy="24.649" r="15.25" stroke="#408AC9" stroke-width="2"/><g clip-path="url(#clip0)"><path d="M14.31 17.107l.925-.494c.87-.462 1.94-.165 2.505.693l1.122 1.71c.488.744.472 1.728-.043 2.431l-1.431 1.958c.285.963.792 1.87 1.519 2.722a8.058 8.058 0 002.506 1.993l1.952-1.073c.74-.406 1.653-.26 2.265.363l1.427 1.448c.713.724.82 1.88.25 2.707l-.611.886c-.608.882-1.62 1.346-2.659 1.218-2.451-.3-4.974-2.06-7.57-5.278-2.6-3.223-3.841-6.134-3.721-8.73.05-1.094.644-2.065 1.563-2.555z" fill="#408AC9"/><path d="M30.429 16.811a1 1 0 00-.555.168l-4.78 3.186v-2.354a1 1 0 00-1-1 2.47 2.47 0 01-2.469-2.47V7.403a2.47 2.47 0 012.47-2.47h10.409a2.47 2.47 0 012.47 2.47v6.94a2.47 2.47 0 01-2.47 2.47h-4.075z" fill="#fff" stroke="#7CC076" stroke-width="2" stroke-linecap="round" stroke-linejoin="round"/><circle cx="25.699" cy="10.891" r="1.162" fill="#7CC076"/><circle cx="29.299" cy="10.891" r="1.162" fill="#7CC076"/><circle cx="32.9" cy="10.891" r="1.162" fill="#7CC076"/></g><defs><clipPath id="clip0"><path fill="#fff" transform="translate(9.791 3.65)" d="M0 0h29v33H0z"/></clipPath></defs></svg>