<svg width="17" height="17" fill="none" xmlns="http://www.w3.org/2000/svg"><g clip-path="url(#clip0)"><path d="M6.516 8.155h-1.49v1.49h1.49v-1.49zm2.98 0h-1.49v1.49h1.49v-1.49zm2.98 0h-1.49v1.49h1.49v-1.49zm1.489-5.214h-.745V1.45h-1.49v1.49H5.771V1.45h-1.49v1.49h-.744c-.827 0-1.482.67-1.482 1.49l-.008 10.427a1.49 1.49 0 001.49 1.49h10.428c.82 0 1.49-.67 1.49-1.49V4.43c0-.82-.67-1.49-1.49-1.49zm0 11.917H3.537V6.665h10.428v8.193z" fill="#C4CDDF"/></g><defs><clipPath id="clip0"><path fill="#fff" transform="translate(.751 .9)" d="M0 0h16v16H0z"/></clipPath></defs></svg>