<svg width="43" height="41" fill="none" xmlns="http://www.w3.org/2000/svg"><path d="M23.373 27.096a8.522 8.522 0 00-1.837-2.723 8.56 8.56 0 00-2.722-1.837l-.028-.011a5.65 5.65 0 00-3.308-10.23 5.65 5.65 0 00-3.308 10.232c-.01.005-.019.007-.028.012a8.485 8.485 0 00-2.722 1.836 8.558 8.558 0 00-1.837 2.723c-.416.984-.54 1.584-.6 2.19-.03.304.158.678.158.678l.442.287h1.06s0-2.767 2-4.654a6.79 6.79 0 014.835-2.003c1.827 0 2.981.201 4.835 2.003 1.853 1.8 2 4.654 2 4.654l1.442-.007.16-.002s.12-.184.089-.48c-.068-.62-.236-1.731-.631-2.668zm-7.895-5.232a3.893 3.893 0 01-2.77-1.148 3.894 3.894 0 01-1.149-2.77c0-1.047.408-2.03 1.148-2.771a3.893 3.893 0 012.771-1.149 3.89 3.89 0 012.77 1.149 3.894 3.894 0 011.149 2.77c0 1.046-.408 2.03-1.148 2.77a3.893 3.893 0 01-2.771 1.15z" fill="#408AC9"/><path fill-rule="evenodd" clip-rule="evenodd" d="M7.233 29.8s-.073-.187-.043-.49c.06-.607-.023-1.228.393-2.212a8.56 8.56 0 011.837-2.723 8.484 8.484 0 012.722-1.836l.014-.006.014-.006-.047-.034-.005-.004a5.643 5.643 0 01-2.29-4.544 5.65 5.65 0 015.65-5.65 5.65 5.65 0 013.36 10.192l-.005.004a3.681 3.681 0 01-.047.034l.014.006.014.005a8.558 8.558 0 012.723 1.837 8.52 8.52 0 011.836 2.723c.395.937.563 2.047.63 2.667.033.297-.091.483-.091.483h-.157l-1.442.007s-.146-2.853-2-4.654c-1.854-1.802-3.008-2.003-4.835-2.003a6.79 6.79 0 00-4.835 2.003c-2 1.887-2 4.654-2 4.654l-1.41-.453zm1.648.454v.238l-1.811-.454-.06-.151.223-.087-.222.087v-.002l-.001-.001-.002-.005-.004-.011a1.154 1.154 0 01-.039-.16 1.588 1.588 0 01-.012-.422c.061-.616-.02-1.265.41-2.281a8.797 8.797 0 011.888-2.799 8.719 8.719 0 012.458-1.735 5.888 5.888 0 013.769-10.415 5.888 5.888 0 013.769 10.413 8.796 8.796 0 012.458 1.735 8.76 8.76 0 011.888 2.799c.409.97.58 2.108.648 2.735.02.186.034 4.235 0 4.344a.902.902 0 01-.073.169l-.007.012-.003.004-.001.002v.001l-.245-4.024.244 4.024-.07.107-.286.003-1.67.008-.055-4.122v-.006l-.002-.022a6.765 6.765 0 00-.048-.424 8.78 8.78 0 00-.246-1.147c-.262-.917-.747-2.037-1.632-2.898-.913-.886-1.637-1.363-2.344-1.624-.707-.26-1.418-.31-2.325-.31a6.55 6.55 0 00-4.666 1.932l-.005.005c-.958.904-1.441 2.022-1.684 2.924a7.42 7.42 0 00-.238 1.446 3.342 3.342 0 00-.003.085v.028zm3.995-9.707a3.655 3.655 0 002.602 1.079c.982 0 1.906-.383 2.602-1.079a3.655 3.655 0 001.079-2.602c0-.982-.383-1.906-1.079-2.602a3.656 3.656 0 00-2.602-1.078c-.982 0-1.906.382-2.602 1.078a3.655 3.655 0 00-1.079 2.602c0 .983.383 1.906 1.079 2.602zm-.169.169a3.894 3.894 0 002.771 1.148c1.046 0 2.03-.408 2.77-1.148a3.893 3.893 0 001.149-2.77c0-1.047-.408-2.03-1.148-2.771a3.894 3.894 0 00-2.771-1.149 3.89 3.89 0 00-2.77 1.149 3.894 3.894 0 00-1.149 2.77c0 1.046.408 2.03 1.148 2.77z" fill="#408AC9"/><circle cx="20" cy="20.368" r="15.25" stroke="#408AC9" stroke-width="2"/><path d="M32.81 22.128l.762.894.761-.894a4.575 4.575 0 013.428-1.594c2.316 0 4.121 1.805 4.121 4.12 0 1.432-.634 2.808-1.956 4.424-1.333 1.63-3.258 3.378-5.676 5.57l-.001.002-.345.313a.5.5 0 01-.671.001l-.339-.306s0 0 0 0c-2.418-2.197-4.343-3.948-5.676-5.579-1.322-1.617-1.957-2.993-1.957-4.425 0-2.315 1.806-4.12 4.121-4.12 1.317 0 2.597.618 3.428 1.594z" fill="#E11E3E" stroke="#E11E3E" stroke-width="2"/></svg>