<svg width="45" height="41" fill="none" xmlns="http://www.w3.org/2000/svg"><path d="M24.04 27.627a8.523 8.523 0 00-1.837-2.723 8.559 8.559 0 00-2.723-1.837c-.009-.004-.018-.006-.027-.011a5.65 5.65 0 00-3.308-10.23 5.65 5.65 0 00-3.309 10.232l-.027.012a8.485 8.485 0 00-2.723 1.836A8.558 8.558 0 008.25 27.63c-.417.984-.54 1.584-.6 2.19-.03.304.158.678.158.678l.442.288h1.06s0-2.768 2-4.655a6.79 6.79 0 014.835-2.003c1.827 0 2.98.201 4.835 2.003 1.853 1.8 2 4.655 2 4.655l1.442-.008.16-.002s.12-.184.088-.48c-.067-.62-.235-1.731-.63-2.668zm-7.895-5.232a3.894 3.894 0 01-2.771-1.148 3.894 3.894 0 01-1.148-2.77 3.89 3.89 0 011.148-2.771 3.894 3.894 0 012.77-1.149c1.046 0 2.03.408 2.771 1.149a3.894 3.894 0 011.149 2.77 3.89 3.89 0 01-1.149 2.77 3.894 3.894 0 01-2.77 1.15z" fill="#408AC9"/><path fill-rule="evenodd" clip-rule="evenodd" d="M7.9 30.331s-.073-.186-.043-.49c.06-.607-.024-1.228.393-2.212a8.557 8.557 0 011.836-2.723 8.483 8.483 0 012.75-1.848 5.565 5.565 0 01-.046-.034l-.006-.004a5.643 5.643 0 01-2.29-4.544 5.65 5.65 0 015.65-5.65 5.65 5.65 0 013.361 10.192l-.005.004-.047.034.014.006.013.005a8.56 8.56 0 012.723 1.836 8.522 8.522 0 011.837 2.724c.395.937.563 2.047.63 2.667.032.297-.092.483-.092.483h-.156l-1.442.008s-.147-2.854-2-4.655c-1.854-1.802-3.008-2.003-4.835-2.003a6.79 6.79 0 00-4.835 2.003c-2 1.887-2 4.655-2 4.655L7.9 30.33zm1.648.454v.238l-1.811-.453-.06-.152.223-.087-.223.087v-.003l-.002-.004-.004-.012a1.152 1.152 0 01-.039-.16 1.588 1.588 0 01-.012-.422c.061-.616-.02-1.265.41-2.281a8.796 8.796 0 011.888-2.798 8.723 8.723 0 012.458-1.736 5.888 5.888 0 013.769-10.415A5.888 5.888 0 0119.913 23a8.798 8.798 0 012.459 1.735 8.758 8.758 0 011.887 2.799c.41.97.58 2.108.648 2.735.02.186.035 4.235 0 4.344a.92.92 0 01-.072.169l-.008.012-.002.005-.001.001-.001.002-.245-4.025.245 4.024-.07.107-.287.003-1.67.008-.054-4.122v-.006l-.002-.022a6.849 6.849 0 00-.048-.425 8.797 8.797 0 00-.246-1.146c-.263-.917-.747-2.037-1.633-2.897-.912-.887-1.636-1.364-2.343-1.624-.708-.26-1.418-.312-2.325-.312-1.764 0-3.42.686-4.667 1.933l-.005.005c-.957.904-1.44 2.022-1.683 2.924a7.418 7.418 0 00-.239 1.447 3.332 3.332 0 00-.003.085v.026zm3.995-9.707a3.655 3.655 0 002.602 1.079c.982 0 1.906-.383 2.602-1.079a3.655 3.655 0 001.078-2.602 3.66 3.66 0 00-1.078-2.602 3.655 3.655 0 00-2.602-1.078c-.983 0-1.906.383-2.602 1.078a3.655 3.655 0 00-1.079 2.602c0 .983.383 1.907 1.079 2.602zm-.169.169a3.894 3.894 0 002.77 1.148c1.047 0 2.03-.408 2.771-1.148a3.894 3.894 0 001.149-2.77c0-1.047-.408-2.03-1.149-2.771a3.894 3.894 0 00-2.77-1.149 3.89 3.89 0 00-2.77 1.149 3.894 3.894 0 00-1.15 2.77 3.89 3.89 0 001.15 2.77z" fill="#408AC9"/><circle cx="20.667" cy="20.899" r="15.25" stroke="#408AC9" stroke-width="2"/><rect x="27.921" y="19.713" width="16" height="16" rx="8" fill="#fff"/><path fill-rule="evenodd" clip-rule="evenodd" d="M32.103 27.713c0-.57.389-1.033.868-1.033h5.9c.479 0 .867.462.867 1.034 0 .57-.388 1.033-.867 1.033h-5.9c-.48 0-.867-.462-.867-1.034z" fill="#7CC076"/><path fill-rule="evenodd" clip-rule="evenodd" d="M35.92 23.896c.57 0 1.033.389 1.033.868v5.9c0 .478-.463.867-1.034.867-.57 0-1.033-.389-1.033-.868v-5.9c0-.479.462-.867 1.033-.867z" fill="#7CC076"/><rect x="27.921" y="19.713" width="16" height="16" rx="8" stroke="#7CC076" stroke-width="2"/></svg>