<svg width="45" height="41" fill="none" xmlns="http://www.w3.org/2000/svg"><path d="M23.513 27.096a8.522 8.522 0 00-1.836-2.723 8.558 8.558 0 00-2.723-1.837l-.027-.011a5.65 5.65 0 00-3.308-10.23 5.65 5.65 0 00-3.309 10.232l-.027.012a8.485 8.485 0 00-2.723 1.836 8.558 8.558 0 00-1.836 2.723c-.417.984-.54 1.584-.6 2.19-.03.304.158.678.158.678l.442.287h1.06s0-2.767 2-4.654a6.79 6.79 0 014.835-2.003c1.827 0 2.98.201 4.834 2.003 1.854 1.8 2 4.654 2 4.654l1.443-.007.16-.002s.12-.184.088-.48c-.067-.62-.235-1.731-.63-2.668zm-7.894-5.232a3.894 3.894 0 01-2.771-1.148 3.894 3.894 0 01-1.148-2.77c0-1.047.408-2.03 1.148-2.771a3.894 3.894 0 012.77-1.149c1.046 0 2.03.408 2.771 1.149a3.894 3.894 0 011.149 2.77 3.89 3.89 0 01-1.149 2.77 3.894 3.894 0 01-2.77 1.15z" fill="#408AC9"/><path fill-rule="evenodd" clip-rule="evenodd" d="M7.374 29.8s-.073-.187-.043-.49c.06-.607-.024-1.228.393-2.212a8.56 8.56 0 011.836-2.723 8.483 8.483 0 012.737-1.842l.013-.006-.046-.034-.006-.004a5.643 5.643 0 01-2.29-4.544 5.65 5.65 0 015.65-5.65 5.65 5.65 0 013.361 10.192l-.005.004a3.672 3.672 0 01-.047.034l.014.006.013.005a8.56 8.56 0 012.723 1.837 8.52 8.52 0 011.837 2.723c.395.937.563 2.047.63 2.667a.766.766 0 01-.092.483h-.156l-1.442.007s-.147-2.853-2-4.654c-1.854-1.802-3.008-2.003-4.835-2.003a6.79 6.79 0 00-4.835 2.003c-2 1.887-2 4.654-2 4.654l-1.41-.453zm1.648.454v.238l-1.811-.454-.06-.151.223-.087-.223.087v-.003l-.002-.005-.004-.011a1.152 1.152 0 01-.039-.16 1.588 1.588 0 01-.012-.422c.061-.616-.02-1.265.41-2.281a8.796 8.796 0 011.888-2.799 8.72 8.72 0 012.458-1.735 5.888 5.888 0 013.769-10.415 5.888 5.888 0 013.768 10.413 8.798 8.798 0 012.459 1.735 8.761 8.761 0 011.887 2.799c.41.97.58 2.108.648 2.735.02.186.035 4.235 0 4.344a.902.902 0 01-.072.169l-.008.012-.002.004-.002.002v.001l-.245-4.024.245 4.024-.07.107-.287.003-1.67.008-.054-4.122v-.006l-.002-.022a6.765 6.765 0 00-.048-.424 8.78 8.78 0 00-.246-1.147c-.263-.917-.747-2.037-1.633-2.898-.912-.886-1.636-1.363-2.343-1.624-.708-.26-1.418-.31-2.325-.31-1.764 0-3.42.685-4.667 1.932l-.005.005c-.957.904-1.44 2.022-1.683 2.924a7.418 7.418 0 00-.239 1.446 3.332 3.332 0 00-.003.085v.028zm3.995-9.707a3.655 3.655 0 002.602 1.079c.982 0 1.906-.383 2.602-1.079a3.655 3.655 0 001.078-2.602 3.66 3.66 0 00-1.078-2.602 3.655 3.655 0 00-2.602-1.078c-.983 0-1.906.382-2.602 1.078a3.655 3.655 0 00-1.079 2.602c0 .983.383 1.906 1.079 2.602zm-.169.169a3.893 3.893 0 002.77 1.148c1.046 0 2.03-.408 2.771-1.148a3.893 3.893 0 001.149-2.77c0-1.047-.408-2.03-1.149-2.771a3.894 3.894 0 00-2.77-1.149 3.89 3.89 0 00-2.77 1.149 3.894 3.894 0 00-1.15 2.77 3.89 3.89 0 001.15 2.77z" fill="#408AC9"/><circle cx="20.141" cy="20.368" r="15.25" stroke="#408AC9" stroke-width="2"/><rect x="27.395" y="19.182" width="16" height="16" rx="8" fill="#fff"/><path d="M31.795 27.182l2.4 2.4 4.8-4.8" stroke="#7CC076" stroke-width="2.5" stroke-linecap="round" stroke-linejoin="round"/><rect x="27.395" y="19.182" width="16" height="16" rx="8" stroke="#7CC076" stroke-width="2"/></svg>