<svg width="17" height="17" fill="none" xmlns="http://www.w3.org/2000/svg"><g clip-path="url(#clip0)"><path d="M11.777 13.75l.553.507.001-.001-.554-.506zM9.97 15.415l-.46-.592.46.592zM5.725 13.75l-.554.506h.001l.553-.506zm1.807 1.665l-.46.592.46-.592zm-.549-9.71l.53.53-.53-.53zm0 3.536l.53-.53-.53.53zm3.536 0l-.53-.53.53.53zm0-3.535l-.53.53.53-.53zm.706 7.537a13.88 13.88 0 01-1.715 1.58l.92 1.184a15.376 15.376 0 001.9-1.75l-1.105-1.014zm2.489-5.69c0 2.37-1.243 4.326-2.49 5.69l1.107 1.013c1.365-1.494 2.883-3.797 2.883-6.703h-1.5zM8.75 2.591c2.742 0 4.963 2.143 4.963 4.962h1.5c0-3.663-2.91-6.462-6.463-6.462v1.5zM3.79 7.553c0-2.819 2.22-4.962 4.962-4.962v-1.5C5.197 1.09 2.29 3.89 2.29 7.553h1.5zm2.49 5.69c-1.247-1.364-2.49-3.32-2.49-5.69h-1.5c0 2.906 1.517 5.21 2.882 6.703l1.108-1.012zm1.713 1.58a13.872 13.872 0 01-1.714-1.58l-1.106 1.014a15.378 15.378 0 001.9 1.75l.92-1.184zm1.518 0c-.43.334-.642.386-.764.385-.124 0-.332-.058-.755-.386l-.92 1.185c.498.386 1.036.697 1.665.701.631.005 1.178-.3 1.694-.7l-.92-1.185zM7.514 6.236a1.75 1.75 0 011.237-.513v-1.5a3.25 3.25 0 00-2.298.952l1.06 1.06zM7 7.473c0-.464.185-.909.513-1.237l-1.06-1.06A3.25 3.25 0 005.5 7.472H7zm.513 1.238A1.75 1.75 0 017 7.473H5.5c0 .862.343 1.689.952 2.298l1.06-1.06zm1.237.512a1.75 1.75 0 01-1.237-.512l-1.06 1.06a3.25 3.25 0 002.297.952v-1.5zm1.238-.512a1.75 1.75 0 01-1.238.512v1.5a3.25 3.25 0 002.298-.952l-1.06-1.06zm.512-1.238c0 .464-.184.91-.512 1.238l1.06 1.06A3.25 3.25 0 0012 7.473h-1.5zm-.51-1.237c.328.328.512.773.512 1.237h1.5a3.25 3.25 0 00-.952-2.298l-1.06 1.06zm-1.24-.513c.464 0 .91.185 1.238.513l1.06-1.06a3.25 3.25 0 00-2.298-.953v1.5z" fill="#C4CDDF"/></g><defs><clipPath id="clip0"><path fill="#fff" transform="translate(.751 .9)" d="M0 0h16v16H0z"/></clipPath></defs></svg>