<svg width="17" height="17" fill="none" xmlns="http://www.w3.org/2000/svg"><path d="M8.751 1.399c-2.138 0-3.75 1.613-3.75 3.75C5 7.287 6.613 8.9 8.75 8.9s3.75-1.612 3.75-3.75c0-2.137-1.612-3.75-3.75-3.75zm0 5.625c-1.104 0-1.875-.77-1.875-1.875 0-1.104.77-1.875 1.875-1.875 1.104 0 1.875.77 1.875 1.875s-.77 1.875-1.875 1.875z" fill="#C4CDDF"/><path fill-rule="evenodd" clip-rule="evenodd" d="M3.222 14.525c1.564 1.167 3.48 1.875 5.53 1.875 2.05 0 3.966-.708 5.53-1.875 0 0 .047-.66 0-1.08-.052-.451-.27-1.132-.27-1.132a4.694 4.694 0 00-4.323-2.876H7.814a4.694 4.694 0 00-4.322 2.876s-.217.586-.27 1.032c-.05.433 0 1.18 0 1.18zm2.833-2.591c-.499.4-.846.96-.984 1.585a7.331 7.331 0 003.68 1.006 7.33 7.33 0 003.682-1.006 2.815 2.815 0 00-2.744-2.207H7.814a2.81 2.81 0 00-1.759.622z" fill="#C4CDDF"/></svg>