<svg width="17" height="17" viewBox="0 0 17 17" fill="none" xmlns="http://www.w3.org/2000/svg">
<path d="M5.22561 14.2997V13.5497H4.47561C3.98496 13.5497 3.51441 13.3547 3.16746 13.0078C2.82052 12.6609 2.62561 12.1903 2.62561 11.6997V6.49966C2.62561 6.00901 2.82052 5.53845 3.16746 5.19151C3.51441 4.84457 3.98496 4.64966 4.47561 4.64966H12.2756C12.7663 4.64966 13.2368 4.84457 13.5838 5.19151C13.9307 5.53845 14.1256 6.00901 14.1256 6.49966V11.6997C14.1256 12.1903 13.9307 12.6609 13.5838 13.0078C13.2368 13.3547 12.7663 13.5497 12.2756 13.5497H9.22191H8.99483L8.80589 13.6756L5.22561 16.0625V14.2997Z" stroke="#E11E3E" stroke-width="1.5"/>
</svg>
