<svg width="21" height="21" viewBox="0 0 21 21" fill="none" xmlns="http://www.w3.org/2000/svg">
<path d="M9.03996 16.7638C9.03996 17.8018 8.20961 18.6529 7.1509 18.6529C6.09219 18.6529 5.26184 17.8018 5.26184 16.7638C5.26184 15.7259 6.09219 14.8748 7.1509 14.8748C8.20961 14.8748 9.03996 15.7259 9.03996 16.7638ZM7.65359 12.9857H6.6293C6.16613 12.9857 5.78488 12.6214 5.76371 12.1588L5.42785 4.82007C5.40527 4.32648 5.79934 3.91394 6.29344 3.91394H8.00629C8.50117 3.91394 8.89555 4.32773 8.8718 4.82203L8.51914 12.1607C8.49692 12.6226 8.11598 12.9857 7.65359 12.9857Z" fill="#C4CDDF"/>
<path d="M15.06 16.7639C15.06 17.8018 14.2296 18.6529 13.1709 18.6529C12.1121 18.6529 11.2818 17.8018 11.2818 16.7639C11.2818 15.7259 12.1122 14.8748 13.1709 14.8748C14.2296 14.8748 15.06 15.7259 15.06 16.7639ZM13.6736 12.9857H12.6493C12.1861 12.9857 11.8048 12.6215 11.7837 12.1588L11.4478 4.82011C11.4252 4.32652 11.8193 3.91402 12.3134 3.91402H14.0262C14.5211 3.91402 14.9155 4.32781 14.8917 4.8221L14.5391 12.1608C14.5169 12.6226 14.1359 12.9857 13.6736 12.9857Z" fill="#C4CDDF"/>
</svg>
