<svg width="14" height="16" viewBox="0 0 14 16" fill="none" xmlns="http://www.w3.org/2000/svg">
<path d="M4.88233 7.3162H3.47056V8.72796H4.88233V7.3162ZM7.70586 7.3162H6.29409V8.72796H7.70586V7.3162ZM10.5294 7.3162H9.11762V8.72796H10.5294V7.3162ZM11.9412 2.37502H11.2353V0.963257H9.8235V2.37502H4.17645V0.963257H2.76468V2.37502H2.0588C1.27527 2.37502 0.654093 3.01032 0.654093 3.78679L0.647034 13.6691C0.647034 14.0436 0.795773 14.4027 1.06053 14.6674C1.32529 14.9322 1.68438 15.0809 2.0588 15.0809H11.9412C12.7176 15.0809 13.3529 14.4456 13.3529 13.6691V3.78679C13.3529 3.01032 12.7176 2.37502 11.9412 2.37502ZM11.9412 13.6691H2.0588V5.90443H11.9412V13.6691Z" fill="#767D86"/>
</svg>
