<svg width="16" height="17" viewBox="0 0 16 17" fill="none" xmlns="http://www.w3.org/2000/svg">
<ellipse rx="3.27928" ry="3.66598" transform="matrix(-1 0 0 1 8.21515 10.1037)" fill="#F3F5F9"/>
<path d="M1.42769 9.15401C1.67789 8.56137 2.04097 8.02305 2.49672 7.56904C2.95108 7.11372 3.48931 6.7507 4.08169 6.50001C4.08699 6.49736 4.0923 6.49603 4.0976 6.49338C3.2713 5.89653 2.73413 4.92433 2.73413 3.82745C2.73413 2.01037 4.20636 0.538139 6.02344 0.538139C7.84052 0.538139 9.31275 2.01037 9.31275 3.82745C9.31275 4.92433 8.77558 5.89653 7.94928 6.49471C7.95458 6.49736 7.95989 6.49869 7.96519 6.50134C8.55939 6.75202 9.09258 7.11145 9.55016 7.57037C10.0055 8.02472 10.3685 8.56295 10.6192 9.15534C10.8616 9.72827 10.9336 10.0774 10.9687 10.4307C10.9863 10.6074 10.8763 10.8252 10.8763 10.8252L10.6192 10.9923H10.0024C10.0024 10.9923 10.0024 9.38111 8.83792 8.28261C8.08589 7.53058 7.08716 7.11676 6.02344 7.11676C4.95972 7.11676 4.28796 7.23403 3.20896 8.28261C2.12996 9.33118 2.04444 10.9923 2.04444 10.9923L1.20513 10.9879L1.11239 10.987C1.11239 10.987 1.04174 10.8796 1.06046 10.707C1.09961 10.346 1.19738 9.69954 1.42769 9.15401ZM6.02344 6.10874C6.63223 6.10874 7.2052 5.87133 7.63626 5.44027C8.06732 5.00921 8.30474 4.43624 8.30474 3.82745C8.30474 3.21866 8.06732 2.64568 7.63626 2.21463C7.2052 1.78357 6.63223 1.54615 6.02344 1.54615C5.41465 1.54615 4.84168 1.78357 4.41062 2.21463C3.97956 2.64568 3.74215 3.21866 3.74215 3.82745C3.74215 4.43624 3.97956 5.00921 4.41062 5.44027C4.84168 5.87133 5.41465 6.10874 6.02344 6.10874Z" fill="#408AC9"/>
<path fill-rule="evenodd" clip-rule="evenodd" d="M10.8231 10.7284C10.8231 10.7284 10.8654 10.6197 10.8478 10.4431C10.8127 10.0897 10.8616 9.72828 10.6192 9.15534C10.3685 8.56296 10.0055 8.02473 9.55014 7.57037C9.12637 7.14537 8.63776 6.80569 8.09589 6.5587C8.05266 6.53899 8.00908 6.51987 7.96517 6.50135C7.96252 6.50002 7.95986 6.49902 7.95721 6.49803C7.95456 6.49704 7.95191 6.49604 7.94925 6.49471C7.95831 6.48816 7.96733 6.48155 7.97632 6.47491L7.9796 6.47248C8.0123 6.44824 8.04452 6.42341 8.07627 6.398C8.83018 5.79468 9.31272 4.86707 9.31272 3.82746C9.31272 2.01038 7.84049 0.538145 6.02342 0.538145C4.20634 0.538145 2.73411 2.01038 2.73411 3.82746C2.73411 4.86702 3.21661 5.7946 3.97046 6.39679C4.00225 6.42219 4.03453 6.44701 4.06727 6.47123L4.07048 6.47361C4.07948 6.48024 4.08851 6.48684 4.09758 6.49339C4.09493 6.49471 4.09227 6.49571 4.08962 6.4967C4.08697 6.4977 4.08431 6.49869 4.08166 6.50002C4.03781 6.51858 3.99426 6.53775 3.95101 6.55753C3.41006 6.80495 2.91742 7.14743 2.49669 7.56905C2.04095 8.02305 1.67787 8.56137 1.42767 9.15401C1.19736 9.69955 1.09959 10.346 1.06043 10.707C1.04172 10.8796 1.11408 10.9879 1.11408 10.9879H1.2051L2.04441 10.9923C2.04441 10.9923 2.12993 9.33119 3.20893 8.28261C4.28794 7.23404 4.95969 7.11677 6.02342 7.11677C7.08714 7.11677 8.08586 7.53058 8.8379 8.28261C10.0024 9.38111 10.0024 10.9923 10.0024 10.9923L10.8231 10.7284ZM9.86364 10.9924V11.1311L10.9179 10.8671L10.9524 10.7788L10.8231 10.7284C10.9524 10.7788 10.9524 10.7788 10.9524 10.7788L10.9527 10.778L10.953 10.777L10.9539 10.7746L10.9563 10.7679C10.9581 10.7625 10.9604 10.7554 10.9628 10.7467C10.9678 10.7293 10.9737 10.7052 10.9788 10.6753C10.9891 10.6153 10.9961 10.5315 10.9859 10.4293C10.9503 10.0705 10.9974 9.69301 10.747 9.10126C10.4893 8.49243 10.1162 7.93925 9.64829 7.47226C9.22949 7.05228 8.74885 6.7132 8.21723 6.46202C8.97149 5.83284 9.4515 4.88587 9.4515 3.82746C9.4515 1.93373 7.91714 0.399368 6.02342 0.399368C4.12969 0.399368 2.59533 1.93373 2.59533 3.82746C2.59533 4.88581 3.0753 5.83281 3.82961 6.46098C3.29864 6.7127 2.81445 7.05418 2.3986 7.47087C1.93018 7.93755 1.55699 8.49088 1.29982 9.10004C1.06146 9.66462 0.962016 10.3273 0.922465 10.6921C0.91071 10.8005 0.902316 13.1575 0.922465 13.2212C0.932517 13.253 0.943568 13.2784 0.952687 13.2968C0.957254 13.306 0.961362 13.3135 0.964659 13.3192L0.968964 13.3264L0.970589 13.329L0.971254 13.33C0.971254 13.33 1.10367 11.1592 1.11408 10.9879L0.971254 13.33L1.01247 13.3927L1.17917 13.3942L2.15159 13.3994L2.183 10.9995L2.18321 10.996L2.18406 10.9833C2.18488 10.9719 2.18624 10.9545 2.18837 10.9318C2.19262 10.8865 2.19991 10.8198 2.21198 10.7362C2.23616 10.569 2.2794 10.3349 2.35547 10.0688C2.5082 9.53481 2.79022 8.88303 3.30565 8.38214C3.83694 7.86583 4.25853 7.58809 4.66984 7.43671C5.08176 7.2851 5.49535 7.25554 6.02342 7.25554C7.05032 7.25554 8.01375 7.65473 8.73977 8.38074L8.74263 8.38361C9.30021 8.90957 9.58143 9.56076 9.72286 10.0855C9.79343 10.3474 9.82867 10.5758 9.84625 10.7383C9.85503 10.8195 9.85938 10.884 9.86153 10.9278C9.86261 10.9496 9.86314 10.9663 9.8634 10.9772L9.86362 10.9893L9.86364 10.9924ZM7.53811 5.34215C7.13305 5.74721 6.59536 5.96997 6.02342 5.96997C5.45147 5.96997 4.91378 5.74721 4.50872 5.34215C4.10366 4.93709 3.8809 4.3994 3.8809 3.82746C3.8809 3.25551 4.10366 2.71782 4.50872 2.31276C4.91378 1.9077 5.45147 1.68494 6.02342 1.68494C6.59536 1.68494 7.13305 1.9077 7.53811 2.31276C7.94317 2.71782 8.16593 3.25551 8.16593 3.82746C8.16593 4.3994 7.94317 4.93709 7.53811 5.34215ZM7.63624 5.44028C7.20518 5.87134 6.6322 6.10875 6.02342 6.10875C5.41463 6.10875 4.84165 5.87134 4.41059 5.44028C3.97953 5.00922 3.74212 4.43624 3.74212 3.82746C3.74212 3.21867 3.97953 2.64569 4.41059 2.21463C4.84165 1.78357 5.41463 1.54616 6.02342 1.54616C6.6322 1.54616 7.20518 1.78357 7.63624 2.21463C8.0673 2.64569 8.30471 3.21867 8.30471 3.82746C8.30471 4.43624 8.0673 5.00922 7.63624 5.44028Z" fill="#408AC9"/>
<circle cx="10.5711" cy="11.5832" r="4.55721" fill="#F3F5F9"/>
<path d="M6.87561 10.9923H11.8143" stroke="#408AC9" stroke-width="1.21875" stroke-linecap="round"/>
<path d="M10.3174 9.01292L12.2967 10.9924L10.3174 12.9717" stroke="#408AC9" stroke-width="1.21875" stroke-linecap="round" stroke-linejoin="round"/>
</svg>
