<svg width="12" height="16" viewBox="0 0 12 16" fill="none" xmlns="http://www.w3.org/2000/svg">
<mask id="path-1-inside-1" fill="white">
<path fill-rule="evenodd" clip-rule="evenodd" d="M7.21892 14.5375C7.86699 14.0342 8.47155 13.4771 9.02621 12.8724C10.3322 11.4435 11.7125 9.3142 11.7125 6.67574C11.7125 3.43462 9.1476 0.963257 6.00002 0.963257C2.85244 0.963257 0.287537 3.43462 0.287537 6.67574C0.287537 9.3142 1.66782 11.4435 2.97383 12.8724C3.52826 13.4771 4.13258 14.0341 4.78041 14.5375C5.70059 15.2514 6.27272 15.2726 7.21892 14.5375ZM6.00002 3.75734C5.2425 3.75734 4.516 4.05826 3.98036 4.59391C3.44471 5.12956 3.14378 5.85606 3.14378 6.61358C3.14378 7.3711 3.44471 8.0976 3.98036 8.63325C4.516 9.1689 5.2425 9.46982 6.00002 9.46982C6.75755 9.46982 7.48404 9.1689 8.01969 8.63325C8.55534 8.0976 8.85627 7.3711 8.85627 6.61358C8.85627 5.85606 8.55534 5.12956 8.01969 4.59391C7.48404 4.05826 6.75755 3.75734 6.00002 3.75734Z"/>
</mask>
<path fill-rule="evenodd" clip-rule="evenodd" d="M7.21892 14.5375C7.86699 14.0342 8.47155 13.4771 9.02621 12.8724C10.3322 11.4435 11.7125 9.3142 11.7125 6.67574C11.7125 3.43462 9.1476 0.963257 6.00002 0.963257C2.85244 0.963257 0.287537 3.43462 0.287537 6.67574C0.287537 9.3142 1.66782 11.4435 2.97383 12.8724C3.52826 13.4771 4.13258 14.0341 4.78041 14.5375C5.70059 15.2514 6.27272 15.2726 7.21892 14.5375ZM6.00002 3.75734C5.2425 3.75734 4.516 4.05826 3.98036 4.59391C3.44471 5.12956 3.14378 5.85606 3.14378 6.61358C3.14378 7.3711 3.44471 8.0976 3.98036 8.63325C4.516 9.1689 5.2425 9.46982 6.00002 9.46982C6.75755 9.46982 7.48404 9.1689 8.01969 8.63325C8.55534 8.0976 8.85627 7.3711 8.85627 6.61358C8.85627 5.85606 8.55534 5.12956 8.01969 4.59391C7.48404 4.05826 6.75755 3.75734 6.00002 3.75734Z" fill="#767D86"/>
<path d="M9.02621 12.8724L9.91059 13.6835L9.91195 13.682L9.02621 12.8724ZM7.21892 14.5375L6.4828 13.5899L6.48276 13.5899L7.21892 14.5375ZM2.97383 12.8724L2.08809 13.682L2.0893 13.6833L2.97383 12.8724ZM4.78041 14.5375L4.04408 15.4851L4.04487 15.4857L4.78041 14.5375ZM3.98036 4.59391L3.13183 3.74538L3.13183 3.74538L3.98036 4.59391ZM8.01969 4.59391L8.86822 3.74538V3.74538L8.01969 4.59391ZM8.14183 12.0613C7.63267 12.6164 7.0777 13.1278 6.4828 13.5899L7.95505 15.4852C8.65628 14.9406 9.31043 14.3378 9.91059 13.6835L8.14183 12.0613ZM10.5125 6.67574C10.5125 8.88604 9.35212 10.7372 8.14047 12.0628L9.91195 13.682C11.3123 12.1499 12.9125 9.74236 12.9125 6.67574H10.5125ZM6.00002 2.16326C8.49775 2.16326 10.5125 4.11018 10.5125 6.67574H12.9125C12.9125 2.75906 9.79745 -0.236743 6.00002 -0.236743V2.16326ZM1.48754 6.67574C1.48754 4.11018 3.50229 2.16326 6.00002 2.16326V-0.236743C2.20259 -0.236743 -0.912463 2.75906 -0.912463 6.67574H1.48754ZM3.85957 12.0628C2.64793 10.7372 1.48754 8.88604 1.48754 6.67574H-0.912463C-0.912463 9.74236 0.687703 12.1499 2.08809 13.682L3.85957 12.0628ZM5.51673 13.59C4.92205 13.1279 4.3673 12.6166 3.85836 12.0614L2.0893 13.6833C2.68921 14.3376 3.34311 14.9404 4.04408 15.4851L5.51673 13.59ZM6.48276 13.5899C6.07811 13.9042 5.96649 13.8807 5.99835 13.8809C6.02589 13.8811 5.91612 13.8998 5.51595 13.5894L4.04487 15.4857C4.56488 15.8891 5.20126 16.2754 5.98146 16.2808C6.76598 16.2864 7.41352 15.9059 7.95508 15.4852L6.48276 13.5899ZM4.82888 5.44244C5.13949 5.13183 5.56076 4.95734 6.00002 4.95734V2.55734C4.92424 2.55734 3.89252 2.98469 3.13183 3.74538L4.82888 5.44244ZM4.34378 6.61358C4.34378 6.17432 4.51828 5.75305 4.82888 5.44244L3.13183 3.74538C2.37113 4.50608 1.94378 5.5378 1.94378 6.61358H4.34378ZM4.82888 7.78472C4.51828 7.47412 4.34378 7.05284 4.34378 6.61358H1.94378C1.94378 7.68936 2.37113 8.72108 3.13183 9.48178L4.82888 7.78472ZM6.00002 8.26982C5.56076 8.26982 5.13949 8.09533 4.82888 7.78472L3.13183 9.48178C3.89252 10.2425 4.92424 10.6698 6.00002 10.6698V8.26982ZM7.17116 7.78472C6.86056 8.09533 6.43929 8.26982 6.00002 8.26982V10.6698C7.07581 10.6698 8.10753 10.2425 8.86822 9.48178L7.17116 7.78472ZM7.65627 6.61358C7.65627 7.05284 7.48177 7.47411 7.17116 7.78472L8.86822 9.48178C9.62891 8.72109 10.0563 7.68936 10.0563 6.61358H7.65627ZM7.17116 5.44244C7.48177 5.75305 7.65627 6.17432 7.65627 6.61358H10.0563C10.0563 5.5378 9.62891 4.50608 8.86822 3.74538L7.17116 5.44244ZM6.00002 4.95734C6.43929 4.95734 6.86056 5.13183 7.17116 5.44244L8.86822 3.74538C8.10753 2.98469 7.07581 2.55734 6.00002 2.55734V4.95734Z" fill="#767D86" mask="url(#path-1-inside-1)"/>
</svg>
