<svg width="13" height="14" viewBox="0 0 13 14" fill="none" xmlns="http://www.w3.org/2000/svg">
<path d="M4.3665 4.96512L4.72723 4.9416L4.87503 4.6117L6.43086 1.13895C6.44427 1.10901 6.45984 1.09533 6.47306 1.08728C6.48888 1.07765 6.51098 1.07075 6.53677 1.07097C6.56256 1.07118 6.58454 1.07845 6.6002 1.08835C6.61328 1.09662 6.62862 1.11056 6.64153 1.14071L8.12319 4.60248L8.26823 4.94134L8.63606 4.96514L12.1962 5.19543C12.2294 5.19757 12.2477 5.20753 12.2597 5.21711C12.2743 5.22865 12.2885 5.24715 12.2972 5.2717C12.3059 5.29625 12.3066 5.31957 12.3026 5.33768C12.2992 5.35273 12.2913 5.37198 12.267 5.39456L9.45815 7.99582L9.18393 8.24978L9.29097 8.60787L10.4131 12.3619C10.424 12.3985 10.4195 12.4196 10.4144 12.4331C10.4079 12.4506 10.3936 12.4713 10.37 12.4882C10.3464 12.5052 10.3222 12.5122 10.3036 12.5128C10.2892 12.5133 10.2677 12.5108 10.2365 12.4888L6.89695 10.1296L6.54559 9.88136L6.19774 10.1345L2.84156 12.5766C2.81237 12.5978 2.79133 12.6011 2.77646 12.6011C2.7578 12.601 2.73414 12.595 2.71089 12.5798C2.68763 12.5645 2.67266 12.5453 2.66517 12.5282C2.65919 12.5146 2.65381 12.494 2.66162 12.4587L3.52372 8.56577L3.59554 8.24145L3.35881 8.00843L0.704443 5.39576C0.681432 5.37311 0.673947 5.35388 0.670926 5.33863C0.667335 5.32049 0.668449 5.29757 0.677333 5.2737C0.686216 5.24982 0.700355 5.23175 0.714928 5.22037C0.727186 5.2108 0.745416 5.20114 0.777635 5.19904L4.3665 4.96512Z" stroke="#E11E3E" stroke-width="1.2" stroke-linecap="round"/>
</svg>
