<svg width="15" height="17" viewBox="0 0 15 17" fill="none" xmlns="http://www.w3.org/2000/svg">
<ellipse cx="7.16047" cy="10.1037" rx="3.27928" ry="3.66598" fill="#F3F5F9"/>
<path d="M13.9479 9.15401C13.6977 8.56137 13.3346 8.02305 12.8789 7.56904C12.4245 7.11372 11.8863 6.7507 11.2939 6.50001C11.2886 6.49736 11.2833 6.49603 11.278 6.49338C12.1043 5.89653 12.6415 4.92433 12.6415 3.82745C12.6415 2.01037 11.1693 0.538139 9.35217 0.538139C7.5351 0.538139 6.06286 2.01037 6.06286 3.82745C6.06286 4.92433 6.60003 5.89653 7.42634 6.49471C7.42103 6.49736 7.41573 6.49869 7.41042 6.50134C6.81622 6.75202 6.28304 7.11145 5.82545 7.57037C5.37013 8.02472 5.00711 8.56295 4.75642 9.15534C4.51397 9.72827 4.44202 10.0774 4.4069 10.4307C4.38934 10.6074 4.49928 10.8252 4.49928 10.8252L4.75642 10.9923H5.37317C5.37317 10.9923 5.37317 9.38111 6.53769 8.28261C7.28972 7.53058 8.28845 7.11676 9.35217 7.11676C10.4159 7.11676 11.0877 7.23403 12.1667 8.28261C13.2457 9.33118 13.3312 10.9923 13.3312 10.9923L14.1705 10.9879L14.2632 10.987C14.2632 10.987 14.3339 10.8796 14.3152 10.707C14.276 10.346 14.1782 9.69954 13.9479 9.15401ZM9.35217 6.10874C8.74339 6.10874 8.17041 5.87133 7.73935 5.44027C7.30829 5.00921 7.07088 4.43624 7.07088 3.82745C7.07088 3.21866 7.30829 2.64568 7.73935 2.21463C8.17041 1.78357 8.74339 1.54615 9.35217 1.54615C9.96096 1.54615 10.5339 1.78357 10.965 2.21463C11.3961 2.64568 11.6335 3.21866 11.6335 3.82745C11.6335 4.43624 11.3961 5.00921 10.965 5.44027C10.5339 5.87133 9.96096 6.10874 9.35217 6.10874Z" fill="#408AC9"/>
<path fill-rule="evenodd" clip-rule="evenodd" d="M4.55256 10.7284C4.55256 10.7284 4.51021 10.6197 4.52777 10.4431C4.56288 10.0897 4.51399 9.72828 4.75645 9.15534C5.00713 8.56296 5.37015 8.02473 5.82547 7.57037C6.24924 7.14537 6.73785 6.80569 7.27972 6.5587C7.32296 6.53899 7.36653 6.51987 7.41044 6.50135C7.41309 6.50002 7.41575 6.49902 7.4184 6.49803C7.42105 6.49704 7.42371 6.49604 7.42636 6.49471C7.4173 6.48816 7.40828 6.48155 7.39929 6.47491L7.39601 6.47248C7.36332 6.44824 7.33109 6.42341 7.29934 6.398C6.54543 5.79468 6.06289 4.86707 6.06289 3.82746C6.06289 2.01038 7.53512 0.538145 9.3522 0.538145C11.1693 0.538145 12.6415 2.01038 12.6415 3.82746C12.6415 4.86702 12.159 5.7946 11.4051 6.39679C11.3734 6.42219 11.3411 6.44701 11.3083 6.47123L11.3051 6.47361C11.2961 6.48024 11.2871 6.48684 11.278 6.49339C11.2807 6.49471 11.2833 6.49571 11.286 6.4967C11.2886 6.4977 11.2913 6.49869 11.2939 6.50002C11.3378 6.51858 11.3814 6.53775 11.4246 6.55753C11.9656 6.80495 12.4582 7.14743 12.8789 7.56905C13.3347 8.02305 13.6977 8.56137 13.9479 9.15401C14.1783 9.69955 14.276 10.346 14.3152 10.707C14.3339 10.8796 14.2615 10.9879 14.2615 10.9879H14.1705L13.3312 10.9923C13.3312 10.9923 13.2457 9.33119 12.1667 8.28261C11.0877 7.23404 10.4159 7.11677 9.3522 7.11677C8.28848 7.11677 7.28975 7.53058 6.53771 8.28261C5.37319 9.38111 5.37319 10.9923 5.37319 10.9923L4.55256 10.7284ZM5.51197 10.9924V11.1311L4.45771 10.8671L4.42326 10.7788L4.55256 10.7284C4.42326 10.7788 4.42326 10.7788 4.42326 10.7788L4.42295 10.778L4.42259 10.777L4.42171 10.7746L4.41934 10.7679C4.41752 10.7625 4.41526 10.7554 4.41277 10.7467C4.40779 10.7293 4.40188 10.7052 4.39677 10.6753C4.38655 10.6153 4.37952 10.5315 4.38967 10.4293C4.42533 10.0705 4.37822 9.69301 4.62864 9.10126C4.88629 8.49243 5.25938 7.93925 5.72732 7.47226C6.14612 7.05228 6.62676 6.7132 7.15838 6.46202C6.40412 5.83284 5.92411 4.88587 5.92411 3.82746C5.92411 1.93373 7.45847 0.399368 9.3522 0.399368C11.2459 0.399368 12.7803 1.93373 12.7803 3.82746C12.7803 4.88581 12.3003 5.83281 11.546 6.46098C12.077 6.7127 12.5612 7.05418 12.977 7.47087C13.4454 7.93755 13.8186 8.49088 14.0758 9.10004C14.3141 9.66462 14.4136 10.3273 14.4531 10.6921C14.4649 10.8005 14.4733 13.1575 14.4531 13.2212C14.4431 13.253 14.432 13.2784 14.4229 13.2968C14.4184 13.306 14.4142 13.3135 14.411 13.3192L14.4066 13.3264L14.405 13.329L14.4044 13.33C14.4044 13.33 14.2719 11.1592 14.2615 10.9879L14.4044 13.33L14.3631 13.3927L14.1964 13.3942L13.224 13.3994L13.1926 10.9995L13.1924 10.996L13.1916 10.9833C13.1907 10.9719 13.1894 10.9545 13.1872 10.9318C13.183 10.8865 13.1757 10.8198 13.1636 10.7362C13.1395 10.569 13.0962 10.3349 13.0201 10.0688C12.8674 9.53481 12.5854 8.88303 12.07 8.38214C11.5387 7.86583 11.1171 7.58809 10.7058 7.43671C10.2938 7.2851 9.88026 7.25554 9.3522 7.25554C8.32529 7.25554 7.36186 7.65473 6.63584 8.38074L6.63298 8.38361C6.0754 8.90957 5.79418 9.56076 5.65275 10.0855C5.58218 10.3474 5.54694 10.5758 5.52936 10.7383C5.52058 10.8195 5.51623 10.884 5.51408 10.9278C5.513 10.9496 5.51247 10.9663 5.51221 10.9772L5.512 10.9893L5.51197 10.9924ZM7.8375 5.34215C8.24256 5.74721 8.78025 5.96997 9.3522 5.96997C9.92414 5.96997 10.4618 5.74721 10.8669 5.34215C11.2719 4.93709 11.4947 4.3994 11.4947 3.82746C11.4947 3.25551 11.2719 2.71782 10.8669 2.31276C10.4618 1.9077 9.92414 1.68494 9.3522 1.68494C8.78025 1.68494 8.24256 1.9077 7.8375 2.31276C7.43244 2.71782 7.20968 3.25551 7.20968 3.82746C7.20968 4.3994 7.43244 4.93709 7.8375 5.34215ZM7.73937 5.44028C8.17043 5.87134 8.74341 6.10875 9.3522 6.10875C9.96098 6.10875 10.534 5.87134 10.965 5.44028C11.3961 5.00922 11.6335 4.43624 11.6335 3.82746C11.6335 3.21867 11.3961 2.64569 10.965 2.21463C10.534 1.78357 9.96098 1.54616 9.3522 1.54616C8.74341 1.54616 8.17043 1.78357 7.73937 2.21463C7.30831 2.64569 7.0709 3.21867 7.0709 3.82746C7.0709 4.43624 7.30831 5.00922 7.73937 5.44028Z" fill="#408AC9"/>
<circle r="4.55721" transform="matrix(-1 0 0 1 4.80446 11.5832)" fill="#F3F5F9"/>
<path d="M8.5 10.9923H3.56129" stroke="#408AC9" stroke-width="1.21875" stroke-linecap="round"/>
<path d="M5.05823 9.01292L3.07888 10.9924L5.05823 12.9717" stroke="#408AC9" stroke-width="1.21875" stroke-linecap="round" stroke-linejoin="round"/>
</svg>
