<svg width="8" height="11" viewBox="0 0 8 11" fill="none" xmlns="http://www.w3.org/2000/svg">
<path d="M1.184 10.4378V7.97377H0.096V7.07777L1.184 6.99777V6.11777H0.096V5.22177L1.184 5.14177V0.261774H3.504C4.00533 0.261774 4.47467 0.320441 4.912 0.437775C5.34933 0.544441 5.728 0.715108 6.048 0.949774C6.37867 1.17377 6.63467 1.47244 6.816 1.84577C7.008 2.20844 7.104 2.64577 7.104 3.15777C7.104 3.68044 7.008 4.12844 6.816 4.50177C6.624 4.87511 6.36267 5.18444 6.032 5.42977C5.70133 5.66444 5.31733 5.84044 4.88 5.95777C4.45333 6.06444 3.99467 6.11777 3.504 6.11777H2.928V6.98177H6.112V7.97377H2.928V10.4378H1.184ZM2.928 5.12577H3.392C4.02133 5.12577 4.50667 4.96577 4.848 4.64577C5.2 4.32577 5.376 3.86177 5.376 3.25377C5.376 2.60311 5.2 2.13911 4.848 1.86177C4.50667 1.58444 4.02133 1.44577 3.392 1.44577H2.928V5.12577Z" fill="#4A80AA"/>
</svg>
