<svg width="29" height="29" viewBox="0 0 29 29" fill="none" xmlns="http://www.w3.org/2000/svg">
<path d="M2.25 8.33459C2.25 7.52237 2.57266 6.74341 3.14699 6.16908C3.72132 5.59475 4.50027 5.27209 5.3125 5.27209H23.6875C24.4997 5.27209 25.2787 5.59475 25.853 6.16908C26.4273 6.74341 26.75 7.52237 26.75 8.33459V12.4322C26.5906 12.3508 26.4264 12.2792 26.2582 12.2178L26.2407 12.2108L26.0351 12.1426L25.3902 11.9483C25.2623 11.9096 25.1319 11.8792 25 11.8573V8.33459C25 7.9865 24.8617 7.65266 24.6156 7.40652C24.3694 7.16038 24.0356 7.02209 23.6875 7.02209H5.3125C4.9644 7.02209 4.63056 7.16038 4.38442 7.40652C4.13828 7.65266 4 7.9865 4 8.33459V19.7096C4 20.0577 4.13828 20.3915 4.38442 20.6377C4.63056 20.8838 4.9644 21.0221 5.3125 21.0221H9.25L17.636 21.1043L16.432 22.7721H5.3125C4.50027 22.7721 3.72132 22.4494 3.14699 21.8751C2.57266 21.3008 2.25 20.5218 2.25 19.7096V8.33459ZM22.9753 14.0326C23.169 13.6827 23.4767 13.4098 23.8472 13.2592C24.2176 13.1086 24.6285 13.0894 25.0114 13.2048L25.6387 13.3938L25.8068 13.4498C26.3264 13.64 26.7849 13.9674 27.1334 14.3972C27.4819 14.8271 27.7074 15.3433 27.786 15.8911C28.0459 17.7006 27.4649 19.8163 26.064 22.2427C24.6666 24.663 23.1284 26.2222 21.4353 26.9047C20.8912 27.124 20.2957 27.1824 19.7195 27.073C19.1432 26.9637 18.6105 26.6912 18.1846 26.2878L17.7104 25.8381L17.6036 25.7278C17.3399 25.4303 17.1853 25.0517 17.1655 24.6546C17.1456 24.2575 17.2615 23.8654 17.4943 23.543L18.6816 21.898L18.7613 21.7982C18.928 21.6093 19.1457 21.4723 19.3882 21.4037C19.6307 21.3351 19.8878 21.3378 20.1289 21.4115L21.9235 21.9601L21.9699 21.9688H22.0075C22.2219 21.9452 22.6576 21.5121 23.1931 20.5846C23.7881 19.5538 23.9106 18.951 23.747 18.7952L22.8344 17.9447L22.718 17.8283C22.4275 17.5135 22.2359 17.1202 22.1672 16.6974C22.0984 16.2745 22.1555 15.8408 22.3313 15.4501L22.9105 14.163L22.9753 14.0326Z" fill="white"/>
<g clip-path="url(#clip0)">
<path fill-rule="evenodd" clip-rule="evenodd" d="M13.9004 10.805C14.0543 11.0789 14.2087 11.3333 14.3634 11.568L13.4794 12.1573C13.2382 12.3181 13.173 12.6441 13.3338 12.8853C13.4947 13.1266 13.8206 13.1918 14.0619 13.0309L14.9919 12.4109C15.2068 12.6616 15.4225 12.875 15.6389 13.0509L14.8794 13.5573C14.6382 13.7181 14.573 14.0441 14.7338 14.2853C14.8946 14.5266 15.2206 14.5918 15.4619 14.4309L16.6882 13.6134C16.6895 13.6125 16.6908 13.6116 16.6922 13.6107C16.854 13.6516 17.0163 13.6721 17.179 13.6721C17.8072 13.6721 18.3592 13.7933 18.8348 14.0356C19.3104 14.2779 19.6694 14.583 19.9117 14.9509C20.154 15.3189 20.3335 15.6868 20.4502 16.0548C20.5669 16.4227 20.6252 16.7772 20.6252 17.1183V18.0178C20.6252 18.3229 20.513 18.5877 20.2886 18.812C20.0643 19.0364 19.7906 19.1486 19.4675 19.1486H7.99826C7.67519 19.1486 7.40147 19.0364 7.17711 18.812C6.95275 18.5877 6.84057 18.3229 6.84057 18.0178V17.1183H7.13673C6.58032 15.2157 6.71493 13.7618 7.54057 12.7567C7.8457 12.2183 7.99826 11.1772 7.99826 9.63364C7.99826 9.32851 8.11044 9.06377 8.3348 8.83941C8.55916 8.61505 8.82391 8.50287 9.12903 8.50287H12.0098C12.4585 8.50287 12.7995 8.69133 13.0329 9.06825C13.0508 9.10415 13.0733 9.158 13.1002 9.22979C13.1271 9.30159 13.154 9.36441 13.181 9.41825C13.2079 9.4721 13.2393 9.52595 13.2752 9.57979C13.3232 9.68258 13.3713 9.78344 13.4193 9.88236C13.3801 9.89649 13.342 9.91555 13.3058 9.9397L12.0794 10.7573C11.8382 10.9181 11.773 11.2441 11.9338 11.4853C12.0946 11.7266 12.4206 11.7918 12.6618 11.6309L13.8882 10.8134L13.9004 10.805ZM11.525 15.0721C11.525 15.652 11.0549 16.1221 10.475 16.1221C9.89512 16.1221 9.42502 15.652 9.42502 15.0721C9.42502 14.4922 9.89512 14.0221 10.475 14.0221C11.0549 14.0221 11.525 14.4922 11.525 15.0721Z" fill="white"/>
</g>
<defs>
<clipPath id="clip0">
<rect width="14" height="14" fill="white" transform="translate(6.625 7.02209)"/>
</clipPath>
</defs>
</svg>
