<svg width="16" height="17" viewBox="0 0 16 17" fill="none" xmlns="http://www.w3.org/2000/svg">
<g clip-path="url(#clip0)">
<path fill-rule="evenodd" clip-rule="evenodd" d="M9.14127 1.93993C9.46313 1.61785 9.98518 1.61775 10.3072 1.93973L14.3269 5.95948C14.6487 6.28127 14.6489 6.80295 14.3273 7.12497C14.1064 7.34619 13.7794 7.42342 13.4828 7.32439L13.3581 7.28275L9.05973 3.007C9.04085 2.98822 9.02084 2.97125 8.99994 2.95611L8.94228 2.78299C8.8437 2.48696 8.92072 2.16064 9.14127 1.93993ZM8.33165 3.6917L5.47438 6.54852L9.71732 10.7915L10.6668 9.84202L13.9661 13.142C14.2264 13.4023 14.6485 13.4023 14.9088 13.142C15.1691 12.8817 15.1691 12.4597 14.9088 12.1994L11.6088 8.89935L12.5851 7.92425L8.35449 3.71597C8.34655 3.70807 8.33894 3.69998 8.33165 3.6917ZM4.67804 7.16639L9.10004 11.5884L9.13579 11.7314C9.20837 12.0217 9.12325 12.3288 8.91159 12.5403C8.579 12.8727 8.03998 12.8726 7.70751 12.5401L3.72648 8.55905C3.39383 8.22641 3.39393 7.68705 3.72669 7.35453C3.93812 7.14325 4.24483 7.05828 4.53483 7.13066L4.67804 7.16639Z" fill="#4A80AA"/>
<path d="M12.2589 8.42963L10.2138 10.5117C9.82172 10.9108 9.17845 10.9107 8.78659 10.5113L5.83538 7.5036C5.45283 7.11373 5.45388 6.48902 5.83775 6.10044L7.83961 4.07403C8.22746 3.68142 8.86005 3.67723 9.25306 4.06468L12.2475 7.01675C12.6403 7.40398 12.6454 8.03613 12.2589 8.42963Z" fill="#4A80AA"/>
<path d="M15.5376 13.6803L15.4475 13.768C15.0593 14.1458 14.4408 14.1457 14.0526 13.7678L12.3462 12.1066C11.9407 11.7118 11.9433 11.0594 12.3521 10.6679L12.4023 10.6198C12.7847 10.2535 13.3864 10.2489 13.7744 10.6092L15.5207 12.2308C15.94 12.6202 15.9477 13.2813 15.5376 13.6803Z" fill="#4A80AA"/>
<rect x="0.583332" y="14.7383" width="9.45833" height="1.536" rx="0.768" fill="#4A80AA"/>
</g>
<defs>
<clipPath id="clip0">
<rect width="16" height="16" fill="white" transform="translate(0 0.899353)"/>
</clipPath>
</defs>
</svg>
