<svg width="14" height="13" viewBox="0 0 14 13" fill="none" xmlns="http://www.w3.org/2000/svg">
<path d="M6.61932 2.26404L7 2.71107L7.38068 2.26404C8.05188 1.47584 9.08339 0.976868 10.15 0.976868C12.0299 0.976868 13.5 2.44701 13.5 4.32687C13.5 5.48563 12.9834 6.57611 11.9724 7.81218C10.9556 9.05528 9.49169 10.3839 7.67913 12.0275L8.015 12.3979L7.67841 12.0281C7.29657 12.3757 6.70089 12.3775 6.32051 12.0341C4.50818 10.3872 3.0445 9.05711 2.02776 7.81319C1.01662 6.57613 0.5 5.48563 0.5 4.32687C0.5 2.44701 1.97014 0.976868 3.85 0.976868C4.91661 0.976868 5.94812 1.47584 6.61932 2.26404Z" fill="white" stroke="#767D86"/>
</svg>
