<svg width="15" height="12" viewBox="0 0 15 12" fill="none" xmlns="http://www.w3.org/2000/svg">
<path d="M1.456 11.0914C1.36 11.0914 1.29067 11.086 1.248 11.0754C1.20533 11.0754 1.14133 11.0647 1.056 11.0434L0.944 10.0034C1.12533 10.0034 1.25867 9.95535 1.344 9.85935C1.44 9.76335 1.488 9.58735 1.488 9.33135V0.691353H2.96C3.45067 1.79002 3.93067 2.88335 4.4 3.97135C4.86933 5.05935 5.33333 6.15802 5.792 7.26735L6.704 9.33135H6.768C6.72533 8.83002 6.69333 8.37135 6.672 7.95535C6.65067 7.53935 6.62933 7.15002 6.608 6.78735C6.59733 6.41402 6.58667 6.05669 6.576 5.71535C6.576 5.36335 6.576 4.99535 6.576 4.61135V2.08335C6.576 1.55002 6.672 1.15535 6.864 0.899353C7.06667 0.632686 7.38667 0.499352 7.824 0.499352C7.90933 0.499352 7.97333 0.504686 8.016 0.515352C8.06933 0.526019 8.13867 0.54202 8.224 0.563353L8.336 1.60335C8.15467 1.60335 8.016 1.65135 7.92 1.74735C7.824 1.83269 7.776 2.00335 7.776 2.25935V10.8994H6.304C5.824 9.80069 5.34933 8.70735 4.88 7.61935C4.41067 6.53135 3.94133 5.42735 3.472 4.30735L2.576 2.25935H2.512C2.55467 2.76069 2.58667 3.21935 2.608 3.63535C2.62933 4.05135 2.64533 4.44602 2.656 4.81935C2.66667 5.18202 2.672 5.53935 2.672 5.89135C2.68267 6.23269 2.688 6.59535 2.688 6.97935V9.52335C2.688 10.046 2.592 10.4407 2.4 10.7074C2.208 10.9634 1.89333 11.0914 1.456 11.0914ZM11.616 6.48335C11.2747 6.48335 10.9547 6.42469 10.656 6.30735C10.3573 6.19002 10.096 6.02469 9.872 5.81135C9.648 5.58735 9.472 5.31535 9.344 4.99535C9.216 4.67535 9.152 4.31269 9.152 3.90735C9.152 3.49135 9.216 3.12335 9.344 2.80335C9.472 2.48335 9.648 2.21669 9.872 2.00335C10.096 1.77935 10.3573 1.61402 10.656 1.50735C10.9547 1.39002 11.2747 1.33135 11.616 1.33135C11.9467 1.33135 12.2613 1.39002 12.56 1.50735C12.8587 1.61402 13.12 1.77935 13.344 2.00335C13.568 2.21669 13.744 2.48335 13.872 2.80335C14 3.12335 14.064 3.49135 14.064 3.90735C14.064 4.31269 14 4.67535 13.872 4.99535C13.744 5.31535 13.568 5.58735 13.344 5.81135C13.12 6.02469 12.8587 6.19002 12.56 6.30735C12.2613 6.42469 11.9467 6.48335 11.616 6.48335ZM11.616 5.60335C12.032 5.60335 12.3627 5.45402 12.608 5.15535C12.864 4.85669 12.992 4.44069 12.992 3.90735C12.992 3.36335 12.864 2.94202 12.608 2.64335C12.3627 2.34469 12.032 2.19535 11.616 2.19535C11.2 2.19535 10.864 2.34469 10.608 2.64335C10.3627 2.94202 10.24 3.36335 10.24 3.90735C10.24 4.44069 10.3627 4.85669 10.608 5.15535C10.864 5.45402 11.2 5.60335 11.616 5.60335ZM9.584 8.49935V7.69935H13.632V8.49935H9.584Z" fill="#767D86"/>
</svg>
