<svg width="16" height="12" viewBox="0 0 16 12" fill="none" xmlns="http://www.w3.org/2000/svg">
<path d="M14.9722 5.74067C14.4233 4.32086 13.4704 3.09301 12.2313 2.20888C10.9922 1.32474 9.52114 0.823064 8 0.765862C6.47886 0.823064 5.00783 1.32474 3.76871 2.20888C2.52959 3.09301 1.57669 4.32086 1.0278 5.74067C0.990733 5.8432 0.990733 5.95548 1.0278 6.05801C1.57669 7.47782 2.52959 8.70566 3.76871 9.5898C5.00783 10.4739 6.47886 10.9756 8 11.0328C9.52114 10.9756 10.9922 10.4739 12.2313 9.5898C13.4704 8.70566 14.4233 7.47782 14.9722 6.05801C15.0093 5.95548 15.0093 5.8432 14.9722 5.74067V5.74067ZM8 8.93276C7.40005 8.93276 6.81357 8.75485 6.31472 8.42154C5.81588 8.08822 5.42708 7.61446 5.19749 7.06018C4.96789 6.50589 4.90782 5.89597 5.02487 5.30755C5.14191 4.71912 5.43082 4.17862 5.85505 3.75439C6.27928 3.33016 6.81978 3.04125 7.40821 2.92421C7.99663 2.80716 8.60655 2.86723 9.16084 3.09683C9.71512 3.32642 10.1889 3.71522 10.5222 4.21406C10.8555 4.71291 11.0334 5.29939 11.0334 5.89934C11.0322 6.70347 10.7122 7.47432 10.1436 8.04293C9.57498 8.61154 8.80413 8.93152 8 8.93276V8.93276Z" stroke="#767D86"/>
</svg>
