<svg width="41" height="41" viewBox="0 0 41 41" fill="none" xmlns="http://www.w3.org/2000/svg">
<circle cx="20.1253" cy="24.6494" r="15.25" stroke="#C4CDDF" stroke-width="2"/>
<g clip-path="url(#clip0)">
<path d="M14.3094 17.1065L15.2351 16.6133C16.1042 16.1512 17.1748 16.448 17.7397 17.306L18.8617 19.0158C19.3502 19.7602 19.3339 20.7438 18.8192 21.4473L17.388 23.4048C17.6729 24.3685 18.1798 25.2757 18.9067 26.1269C19.6004 26.9522 20.4526 27.6298 21.413 28.1198L23.3649 27.0471C24.1055 26.6414 25.0184 26.7876 25.63 27.4096L27.0574 28.8581C27.7696 29.5817 27.8763 30.7382 27.3067 31.5649L26.696 32.451C26.0882 33.3327 25.0752 33.7975 24.0372 33.6693C21.586 33.3681 19.0628 31.6085 16.4666 28.3908C13.8667 25.1681 12.626 22.2567 12.746 19.6601C12.7962 18.5675 13.3904 17.5957 14.3094 17.1065Z" fill="#408AC9"/>
<path d="M30.4287 16.8112C30.2312 16.8112 30.0382 16.8696 29.874 16.9791L25.0949 20.1652V17.8112C25.0949 17.2589 24.6472 16.8112 24.0949 16.8112C23.44 16.8112 22.8118 16.551 22.3487 16.0878C21.8855 15.6247 21.6253 14.9966 21.6253 14.3416V7.40241C21.6253 6.74743 21.8855 6.11928 22.3487 5.65614C22.8118 5.193 23.4399 4.93282 24.0949 4.93282H34.5037C35.1587 4.93282 35.7868 5.193 36.25 5.65614C36.7131 6.11928 36.9733 6.74743 36.9733 7.40241V14.3416C36.9733 14.9966 36.7131 15.6247 36.25 16.0878C35.7868 16.551 35.1587 16.8112 34.5037 16.8112H30.4287Z" fill="white" stroke="#7CC076" stroke-width="2" stroke-linecap="round" stroke-linejoin="round"/>
<circle cx="25.6987" cy="10.891" r="1.16229" fill="#7CC076"/>
<circle cx="29.2993" cy="10.891" r="1.16229" fill="#7CC076"/>
<circle cx="32.8999" cy="10.891" r="1.16229" fill="#7CC076"/>
</g>
<defs>
<clipPath id="clip0">
<rect width="29" height="33" fill="white" transform="translate(9.79135 3.64937)"/>
</clipPath>
</defs>
</svg>
