<svg width="17" height="17" viewBox="0 0 17 17" fill="none" xmlns="http://www.w3.org/2000/svg">
<g clip-path="url(#clip0)">
<path d="M6.51631 8.15453H5.0266V9.64425H6.51631V8.15453ZM9.49573 8.15453H8.00602V9.64425H9.49573V8.15453ZM12.4752 8.15453H10.9854V9.64425H12.4752V8.15453ZM13.9649 2.94055H13.22V1.45084H11.7303V2.94055H5.77146V1.45084H4.28175V2.94055H3.53689C2.7101 2.94055 2.05463 3.61092 2.05463 4.43026L2.04718 14.8582C2.04718 15.2533 2.20413 15.6322 2.48351 15.9116C2.76288 16.191 3.1418 16.3479 3.53689 16.3479H13.9649C14.7842 16.3479 15.4546 15.6776 15.4546 14.8582V4.43026C15.4546 3.61092 14.7842 2.94055 13.9649 2.94055ZM13.9649 14.8582H3.53689V6.66482H13.9649V14.8582Z" fill="#C4CDDF"/>
</g>
<defs>
<clipPath id="clip0">
<rect width="16" height="16" fill="white" transform="translate(0.751221 0.899368)"/>
</clipPath>
</defs>
</svg>
