<svg width="43" height="41" viewBox="0 0 43 41" fill="none" xmlns="http://www.w3.org/2000/svg">
<path d="M23.3728 27.6266C22.943 26.6085 22.3193 25.6837 21.5364 24.9038C20.7558 24.1217 19.8312 23.498 18.8136 23.0674C18.8045 23.0628 18.7954 23.0606 18.7863 23.056C20.2057 22.0307 21.1285 20.3606 21.1285 18.4763C21.1285 15.3548 18.5994 12.8258 15.478 12.8258C12.3565 12.8258 9.8274 15.3548 9.8274 18.4763C9.8274 20.3606 10.7502 22.0307 12.1696 23.0583C12.1605 23.0628 12.1514 23.0651 12.1423 23.0697C11.1216 23.5003 10.2056 24.1178 9.41955 24.9061C8.63738 25.6866 8.01376 26.6112 7.58312 27.6289C7.16662 28.6131 7.04302 29.2128 6.98269 29.8197C6.95253 30.1232 7.14139 30.4974 7.14139 30.4974L7.58312 30.7845H8.6426C8.6426 30.7845 8.6426 28.0167 10.6431 26.1296C11.935 24.8378 13.6506 24.1269 15.478 24.1269C17.3053 24.1269 18.4593 24.3283 20.3128 26.1296C22.1664 27.9309 22.3133 30.7845 22.3133 30.7845L23.7551 30.7769L23.9144 30.7754C23.9144 30.7754 24.0358 30.5909 24.0036 30.2944C23.9364 29.6742 23.7684 28.5637 23.3728 27.6266ZM15.478 22.3953C14.4321 22.3953 13.4479 21.9874 12.7074 21.2469C11.9669 20.5064 11.559 19.5221 11.559 18.4763C11.559 17.4305 11.9669 16.4462 12.7074 15.7057C13.4479 14.9652 14.4321 14.5574 15.478 14.5574C16.5238 14.5574 17.5081 14.9652 18.2485 15.7057C18.989 16.4462 19.3969 17.4305 19.3969 18.4763C19.3969 19.5221 18.989 20.5064 18.2485 21.2469C17.5081 21.9874 16.5238 22.3953 15.478 22.3953Z" fill="#408AC9"/>
<path fill-rule="evenodd" clip-rule="evenodd" d="M7.23292 30.3311C7.23292 30.3311 7.16017 30.1445 7.19033 29.841C7.25066 29.234 7.16667 28.6131 7.58317 27.6289C8.01381 26.6112 8.63743 25.6866 9.4196 24.9061C10.1476 24.176 10.9869 23.5925 11.9178 23.1682C11.9921 23.1344 12.0669 23.1015 12.1424 23.0697C12.1469 23.0674 12.1515 23.0657 12.156 23.064C12.1606 23.0623 12.1651 23.0606 12.1697 23.0583C12.1541 23.047 12.1386 23.0357 12.1232 23.0243L12.1176 23.0201C12.0614 22.9785 12.006 22.9358 11.9515 22.8922C10.6564 21.8558 9.82745 20.2622 9.82745 18.4763C9.82745 15.3549 12.3565 12.8258 15.478 12.8258C18.5995 12.8258 21.1286 15.3549 21.1286 18.4763C21.1286 20.2622 20.2997 21.8556 19.0047 22.8901C18.9501 22.9337 18.8946 22.9763 18.8384 23.018L18.8329 23.022C18.8174 23.0334 18.8019 23.0448 18.7863 23.056C18.7909 23.0583 18.7954 23.06 18.8 23.0617C18.8045 23.0634 18.8091 23.0651 18.8137 23.0674C18.889 23.0993 18.9638 23.1322 19.0381 23.1662C19.9674 23.5912 20.8137 24.1796 21.5364 24.9038C22.3193 25.6838 22.943 26.6085 23.3728 27.6266C23.7685 28.5637 23.9364 29.6742 24.0037 30.2944C24.0358 30.5909 23.9115 30.7769 23.9115 30.7769H23.7552L22.3134 30.7845C22.3134 30.7845 22.1664 27.931 20.3129 26.1297C18.4593 24.3284 17.3053 24.1269 15.478 24.1269C13.6507 24.1269 11.935 24.8378 10.6431 26.1297C8.64265 28.0167 8.64265 30.7845 8.64265 30.7845L7.23292 30.3311ZM8.88105 30.7847V31.0229L7.06998 30.5695L7.0108 30.4177L7.23292 30.3311C7.0108 30.4177 7.0108 30.4177 7.0108 30.4177L7.01028 30.4163L7.00966 30.4147L7.00813 30.4106L7.00406 30.399C7.00094 30.3898 6.99706 30.3776 6.99278 30.3626C6.98423 30.3327 6.97408 30.2914 6.9653 30.2399C6.94775 30.1369 6.93567 29.9928 6.9531 29.8174C7.01437 29.201 6.93344 28.5525 7.36362 27.536C7.80622 26.4901 8.44714 25.5398 9.25099 24.7376C9.97042 24.0161 10.7961 23.4336 11.7093 23.0021C10.4136 21.9213 9.58905 20.2945 9.58905 18.4763C9.58905 15.2232 12.2249 12.5874 15.478 12.5874C18.7311 12.5874 21.367 15.2232 21.367 18.4763C21.367 20.2944 20.5424 21.9212 19.2466 23.0004C20.1588 23.4328 20.9905 24.0194 21.7049 24.7352C22.5096 25.5369 23.1507 26.4874 23.5925 27.5339C24.0019 28.5037 24.1728 29.6421 24.2407 30.2687C24.2609 30.455 24.2753 34.504 24.2407 34.6134C24.2234 34.668 24.2044 34.7117 24.1888 34.7432C24.1809 34.7591 24.1739 34.7719 24.1682 34.7817L24.1608 34.7941L24.158 34.7985L24.1569 34.8003L24.1561 34.8015C24.1561 34.8015 23.9294 31.0712 23.9115 30.7769L24.1561 34.8015L24.0861 34.908L23.7997 34.9107L22.1292 34.9195L22.0753 30.7969L22.0749 30.7909L22.0735 30.7691C22.072 30.7494 22.0697 30.7196 22.0661 30.6806C22.0588 30.6027 22.0462 30.4881 22.0255 30.3446C21.984 30.0573 21.9097 29.6551 21.779 29.1981C21.5166 28.2807 21.0322 27.1611 20.1467 26.3006C19.234 25.4137 18.5098 24.9366 17.8032 24.6765C17.0956 24.4161 16.3851 24.3653 15.478 24.3653C13.7139 24.3653 12.0589 25.051 10.8117 26.2982L10.8068 26.3031C9.84895 27.2067 9.36584 28.3253 9.12289 29.2268C9.00167 29.6766 8.94112 30.0691 8.91092 30.3482C8.89584 30.4877 8.88837 30.5985 8.88467 30.6736C8.88282 30.7112 8.88191 30.7398 8.88147 30.7586L8.88109 30.7793L8.88105 30.7847ZM12.876 21.0784C13.5718 21.7742 14.4955 22.1569 15.478 22.1569C16.4605 22.1569 17.3842 21.7742 18.08 21.0784C18.7759 20.3825 19.1585 19.4589 19.1585 18.4763C19.1585 17.4938 18.7759 16.5701 18.08 15.8743C17.3842 15.1785 16.4605 14.7958 15.478 14.7958C14.4955 14.7958 13.5718 15.1785 12.876 15.8743C12.1801 16.5701 11.7975 17.4938 11.7975 18.4763C11.7975 19.4589 12.1801 20.3825 12.876 21.0784ZM12.7074 21.2469C13.4479 21.9874 14.4322 22.3953 15.478 22.3953C16.5238 22.3953 17.5081 21.9874 18.2486 21.2469C18.9891 20.5064 19.3969 19.5221 19.3969 18.4763C19.3969 17.4305 18.9891 16.4462 18.2486 15.7057C17.5081 14.9652 16.5238 14.5574 15.478 14.5574C14.4322 14.5574 13.4479 14.9652 12.7074 15.7057C11.9669 16.4462 11.5591 17.4305 11.5591 18.4763C11.5591 19.5221 11.9669 20.5064 12.7074 21.2469Z" fill="#408AC9"/>
<circle cx="20.0002" cy="20.8994" r="15.25" stroke="#408AC9" stroke-width="2"/>
<path d="M32.8104 22.6589L33.5718 23.553L34.3331 22.6589C35.1644 21.6828 36.4442 21.0647 37.7614 21.0647C40.0768 21.0647 41.8822 22.8701 41.8822 25.1855C41.8822 26.6166 41.2476 27.9933 39.926 29.6091C38.593 31.2388 36.6676 32.9874 34.25 35.1796L34.2486 35.1809L33.9045 35.4941C33.7143 35.6673 33.4236 35.6679 33.2327 35.4954L32.8943 35.1896C32.894 35.1894 32.8937 35.1891 32.8934 35.1888C30.476 32.9921 28.5508 31.2415 27.2177 29.6105C25.896 27.9934 25.2613 26.6167 25.2613 25.1855C25.2613 22.8701 27.0667 21.0647 29.3821 21.0647C30.6993 21.0647 31.9792 21.6828 32.8104 22.6589Z" fill="white" stroke="#E11E3E" stroke-width="2"/>
</svg>
