<svg width="43" height="41" viewBox="0 0 43 41" fill="none" xmlns="http://www.w3.org/2000/svg">
<path d="M23.3728 27.0955C22.943 26.0774 22.3193 25.1527 21.5364 24.3727C20.7558 23.5906 19.8312 22.9669 18.8136 22.5363C18.8045 22.5317 18.7954 22.5295 18.7863 22.5249C20.2057 21.4996 21.1285 19.8295 21.1285 17.9452C21.1285 14.8238 18.5994 12.2947 15.478 12.2947C12.3565 12.2947 9.8274 14.8238 9.8274 17.9452C9.8274 19.8295 10.7502 21.4996 12.1696 22.5272C12.1605 22.5317 12.1514 22.534 12.1423 22.5386C11.1216 22.9692 10.2056 23.5867 9.41955 24.375C8.63738 25.1555 8.01376 26.0801 7.58312 27.0978C7.16662 28.082 7.04302 28.6817 6.98269 29.2886C6.95253 29.5921 7.14139 29.9663 7.14139 29.9663L7.58312 30.2534H8.6426C8.6426 30.2534 8.6426 27.4856 10.6431 25.5985C11.935 24.3067 13.6506 23.5958 15.478 23.5958C17.3053 23.5958 18.4593 23.7972 20.3128 25.5985C22.1664 27.3998 22.3133 30.2534 22.3133 30.2534L23.7551 30.2458L23.9144 30.2443C23.9144 30.2443 24.0358 30.0598 24.0036 29.7633C23.9364 29.1431 23.7684 28.0326 23.3728 27.0955ZM15.478 21.8642C14.4321 21.8642 13.4479 21.4563 12.7074 20.7158C11.9669 19.9753 11.559 18.991 11.559 17.9452C11.559 16.8994 11.9669 15.9151 12.7074 15.1746C13.4479 14.4341 14.4321 14.0263 15.478 14.0263C16.5238 14.0263 17.5081 14.4341 18.2485 15.1746C18.989 15.9151 19.3969 16.8994 19.3969 17.9452C19.3969 18.991 18.989 19.9753 18.2485 20.7158C17.5081 21.4563 16.5238 21.8642 15.478 21.8642Z" fill="#408AC9"/>
<path fill-rule="evenodd" clip-rule="evenodd" d="M7.23295 29.8C7.23295 29.8 7.1602 29.6134 7.19036 29.3099C7.25069 28.703 7.1667 28.082 7.5832 27.0978C8.01384 26.0802 8.63746 25.1556 9.41963 24.375C10.1476 23.6449 10.987 23.0614 11.9178 22.6371C11.9921 22.6033 12.0669 22.5704 12.1424 22.5386C12.1469 22.5363 12.1515 22.5346 12.1561 22.5329C12.1606 22.5312 12.1652 22.5295 12.1697 22.5272C12.1542 22.5159 12.1387 22.5046 12.1232 22.4932L12.1176 22.489C12.0614 22.4474 12.0061 22.4047 11.9515 22.3611C10.6564 21.3247 9.82748 19.7312 9.82748 17.9452C9.82748 14.8238 12.3566 12.2947 15.478 12.2947C18.5995 12.2947 21.1286 14.8238 21.1286 17.9452C21.1286 19.7311 20.2997 21.3245 19.0047 22.359C18.9501 22.4026 18.8947 22.4453 18.8384 22.4869L18.8329 22.4909C18.8174 22.5024 18.8019 22.5137 18.7863 22.5249C18.7909 22.5272 18.7955 22.5289 18.8 22.5306C18.8046 22.5323 18.8091 22.534 18.8137 22.5363C18.889 22.5682 18.9638 22.6011 19.0381 22.6351C19.9674 23.0602 20.8137 23.6485 21.5364 24.3728C22.3193 25.1527 22.9431 26.0774 23.3729 27.0955C23.7685 28.0326 23.9365 29.1431 24.0037 29.7633C24.0359 30.0598 23.9116 30.2458 23.9116 30.2458H23.7552L22.3134 30.2534C22.3134 30.2534 22.1665 27.3999 20.3129 25.5986C18.4593 23.7973 17.3053 23.5958 15.478 23.5958C13.6507 23.5958 11.935 24.3067 10.6432 25.5986C8.64268 27.4856 8.64268 30.2534 8.64268 30.2534L7.23295 29.8ZM8.88108 30.2536V30.4918L7.07001 30.0384L7.01083 29.8866L7.23295 29.8C7.01083 29.8866 7.01083 29.8866 7.01083 29.8866L7.01031 29.8852L7.00969 29.8836L7.00817 29.8795L7.00409 29.8679C7.00097 29.8587 6.99709 29.8465 6.99281 29.8315C6.98426 29.8016 6.97411 29.7603 6.96533 29.7088C6.94778 29.6058 6.9357 29.4617 6.95314 29.2863C7.0144 28.6699 6.93347 28.0214 7.36365 27.0049C7.80625 25.959 8.44717 25.0087 9.25102 24.2065C9.97045 23.485 10.7961 22.9025 11.7094 22.4711C10.4137 21.3902 9.58908 19.7634 9.58908 17.9452C9.58908 14.6921 12.2249 12.0563 15.478 12.0563C18.7312 12.0563 21.367 14.6921 21.367 17.9452C21.367 19.7633 20.5425 21.3902 19.2467 22.4693C20.1588 22.9017 20.9906 23.4883 21.7049 24.2041C22.5096 25.0058 23.1507 25.9563 23.5925 27.0028C24.0019 27.9727 24.1728 29.1111 24.2407 29.7376C24.2609 29.9239 24.2753 33.9729 24.2407 34.0823C24.2235 34.1369 24.2045 34.1806 24.1888 34.2122C24.181 34.228 24.1739 34.2409 24.1682 34.2506L24.1608 34.263L24.1581 34.2674L24.1569 34.2692L24.1562 34.2704C24.1562 34.2704 23.9294 30.5401 23.9116 30.2458L24.1562 34.2704L24.0861 34.3769L23.7997 34.3796L22.1293 34.3884L22.0753 30.2659L22.075 30.2598L22.0735 30.238C22.0721 30.2183 22.0697 30.1885 22.0661 30.1495C22.0588 30.0716 22.0463 29.9571 22.0255 29.8135C21.984 29.5262 21.9097 29.124 21.779 28.667C21.5167 27.7497 21.0322 26.63 20.1468 25.7695C19.2341 24.8826 18.5098 24.4055 17.8033 24.1454C17.0957 23.885 16.3852 23.8342 15.478 23.8342C13.714 23.8342 12.0589 24.52 10.8117 25.7671L10.8068 25.7721C9.84898 26.6756 9.36587 27.7942 9.12293 28.6957C9.0017 29.1455 8.94115 29.538 8.91095 29.8171C8.89587 29.9566 8.8884 30.0674 8.8847 30.1425C8.88285 30.1801 8.88194 30.2087 8.8815 30.2275L8.88112 30.2482L8.88108 30.2536ZM12.876 20.5473C13.5718 21.2431 14.4955 21.6258 15.478 21.6258C16.4605 21.6258 17.3842 21.2431 18.0801 20.5473C18.7759 19.8514 19.1586 18.9278 19.1586 17.9452C19.1586 16.9627 18.7759 16.0391 18.0801 15.3432C17.3842 14.6474 16.4605 14.2647 15.478 14.2647C14.4955 14.2647 13.5718 14.6474 12.876 15.3432C12.1802 16.0391 11.7975 16.9627 11.7975 17.9452C11.7975 18.9278 12.1802 19.8514 12.876 20.5473ZM12.7074 20.7158C13.4479 21.4563 14.4322 21.8642 15.478 21.8642C16.5238 21.8642 17.5081 21.4563 18.2486 20.7158C18.9891 19.9753 19.397 18.9911 19.397 17.9452C19.397 16.8994 18.9891 15.9151 18.2486 15.1746C17.5081 14.4342 16.5238 14.0263 15.478 14.0263C14.4322 14.0263 13.4479 14.4342 12.7074 15.1746C11.9669 15.9151 11.5591 16.8994 11.5591 17.9452C11.5591 18.9911 11.9669 19.9753 12.7074 20.7158Z" fill="#408AC9"/>
<circle cx="20.0002" cy="20.3683" r="15.25" stroke="#408AC9" stroke-width="2"/>
<path d="M32.8104 22.1279L33.5717 23.0219L34.3331 22.1279C35.1643 21.1517 36.4442 20.5336 37.7614 20.5336C40.0767 20.5336 41.8822 22.339 41.8822 24.6544C41.8822 26.0856 41.2475 27.4623 39.926 29.078C38.5929 30.7077 36.6676 32.4563 34.25 34.6485L34.2486 34.6498L33.9045 34.963C33.7142 35.1362 33.4236 35.1368 33.2327 34.9643L32.8942 34.6585C32.8939 34.6583 32.8937 34.658 32.8934 34.6577C30.476 32.461 28.5508 30.7104 27.2177 29.0794C25.8959 27.4623 25.2613 26.0856 25.2613 24.6544C25.2613 22.339 27.0667 20.5336 29.382 20.5336C30.6993 20.5336 31.9791 21.1517 32.8104 22.1279Z" fill="#E11E3E" stroke="#E11E3E" stroke-width="2"/>
</svg>
