<svg width="45" height="41" viewBox="0 0 45 41" fill="none" xmlns="http://www.w3.org/2000/svg">
<path d="M23.5134 27.0955C23.0836 26.0774 22.4599 25.1527 21.677 24.3727C20.8965 23.5906 19.9719 22.9669 18.9542 22.5363C18.9451 22.5317 18.936 22.5295 18.9269 22.5249C20.3464 21.4996 21.2691 19.8295 21.2691 17.9452C21.2691 14.8238 18.7401 12.2947 15.6186 12.2947C12.4971 12.2947 9.96802 14.8238 9.96802 17.9452C9.96802 19.8295 10.8908 21.4996 12.3103 22.5272C12.3012 22.5317 12.292 22.534 12.2829 22.5386C11.2622 22.9692 10.3462 23.5867 9.56018 24.375C8.77801 25.1555 8.15439 26.0801 7.72375 27.0978C7.30725 28.082 7.18364 28.6817 7.12332 29.2886C7.09316 29.5921 7.28202 29.9663 7.28202 29.9663L7.72375 30.2534H8.78323C8.78323 30.2534 8.78323 27.4856 10.7837 25.5985C12.0756 24.3067 13.7913 23.5958 15.6186 23.5958C17.4459 23.5958 18.5999 23.7972 20.4534 25.5985C22.307 27.3998 22.4539 30.2534 22.4539 30.2534L23.8957 30.2458L24.0551 30.2443C24.0551 30.2443 24.1764 30.0598 24.1443 29.7633C24.077 29.1431 23.909 28.0326 23.5134 27.0955ZM15.6186 21.8642C14.5728 21.8642 13.5885 21.4563 12.848 20.7158C12.1075 19.9753 11.6996 18.991 11.6996 17.9452C11.6996 16.8994 12.1075 15.9151 12.848 15.1746C13.5885 14.4341 14.5728 14.0263 15.6186 14.0263C16.6644 14.0263 17.6487 14.4341 18.3892 15.1746C19.1297 15.9151 19.5375 16.8994 19.5375 17.9452C19.5375 18.991 19.1297 19.9753 18.3892 20.7158C17.6487 21.4563 16.6644 21.8642 15.6186 21.8642Z" fill="#408AC9"/>
<path fill-rule="evenodd" clip-rule="evenodd" d="M7.37357 29.8C7.37357 29.8 7.30083 29.6134 7.33099 29.3099C7.39131 28.703 7.30733 28.082 7.72383 27.0978C8.15446 26.0802 8.77809 25.1556 9.56026 24.375C10.2882 23.6449 11.1276 23.0614 12.0584 22.6371C12.1327 22.6033 12.2076 22.5704 12.283 22.5386C12.2876 22.5363 12.2921 22.5346 12.2967 22.5329C12.3012 22.5312 12.3058 22.5295 12.3103 22.5272C12.2948 22.5159 12.2793 22.5046 12.2638 22.4932L12.2582 22.489C12.202 22.4474 12.1467 22.4047 12.0921 22.3611C10.797 21.3247 9.9681 19.7312 9.9681 17.9452C9.9681 14.8238 12.4972 12.2947 15.6187 12.2947C18.7401 12.2947 21.2692 14.8238 21.2692 17.9452C21.2692 19.7311 20.4403 21.3245 19.1453 22.359C19.0907 22.4026 19.0353 22.4453 18.979 22.4869L18.9735 22.4909C18.9581 22.5024 18.9425 22.5137 18.927 22.5249C18.9315 22.5272 18.9361 22.5289 18.9406 22.5306C18.9452 22.5323 18.9497 22.534 18.9543 22.5363C19.0296 22.5682 19.1045 22.6011 19.1787 22.6351C20.108 23.0602 20.9543 23.6485 21.6771 24.3728C22.46 25.1527 23.0837 26.0774 23.5135 27.0955C23.9091 28.0326 24.0771 29.1431 24.1443 29.7633C24.1765 30.0598 24.0522 30.2458 24.0522 30.2458H23.8958L22.454 30.2534C22.454 30.2534 22.3071 27.3999 20.4535 25.5986C18.6 23.7973 17.446 23.5958 15.6187 23.5958C13.7913 23.5958 12.0757 24.3067 10.7838 25.5986C8.78331 27.4856 8.78331 30.2534 8.78331 30.2534L7.37357 29.8ZM9.0217 30.2536V30.4918L7.21063 30.0384L7.15145 29.8866L7.37357 29.8C7.15145 29.8866 7.15145 29.8866 7.15145 29.8866L7.15093 29.8852L7.15031 29.8836L7.14879 29.8795L7.14472 29.8679C7.1416 29.8587 7.13771 29.8465 7.13344 29.8315C7.12489 29.8016 7.11473 29.7603 7.10596 29.7088C7.0884 29.6058 7.07633 29.4617 7.09376 29.2863C7.15502 28.6699 7.07409 28.0214 7.50428 27.0049C7.94687 25.959 8.58779 25.0087 9.39165 24.2065C10.1111 23.485 10.9368 22.9025 11.85 22.4711C10.5543 21.3902 9.7297 19.7634 9.7297 17.9452C9.7297 14.6921 12.3655 12.0563 15.6187 12.0563C18.8718 12.0563 21.5076 14.6921 21.5076 17.9452C21.5076 19.7633 20.6831 21.3902 19.3873 22.4693C20.2994 22.9017 21.1312 23.4883 21.8456 24.2041C22.6502 25.0058 23.2913 25.9563 23.7331 27.0028C24.1426 27.9727 24.3134 29.1111 24.3813 29.7376C24.4015 29.9239 24.416 33.9729 24.3813 34.0823C24.3641 34.1369 24.3451 34.1806 24.3294 34.2122C24.3216 34.228 24.3145 34.2409 24.3089 34.2506L24.3015 34.263L24.2987 34.2674L24.2975 34.2692L24.2968 34.2704C24.2968 34.2704 24.0701 30.5401 24.0522 30.2458L24.2968 34.2704L24.2267 34.3769L23.9404 34.3796L22.2699 34.3884L22.2159 30.2659L22.2156 30.2598L22.2141 30.238C22.2127 30.2183 22.2104 30.1885 22.2067 30.1495C22.1994 30.0716 22.1869 29.9571 22.1661 29.8135C22.1246 29.5262 22.0503 29.124 21.9196 28.667C21.6573 27.7497 21.1728 26.63 20.2874 25.7695C19.3747 24.8826 18.6505 24.4055 17.9439 24.1454C17.2363 23.885 16.5258 23.8342 15.6187 23.8342C13.8546 23.8342 12.1995 24.52 10.9524 25.7671L10.9474 25.7721C9.9896 26.6756 9.5065 27.7942 9.26355 28.6957C9.14232 29.1455 9.08177 29.538 9.05158 29.8171C9.03649 29.9566 9.02902 30.0674 9.02532 30.1425C9.02347 30.1801 9.02257 30.2087 9.02213 30.2275L9.02175 30.2482L9.0217 30.2536ZM13.0166 20.5473C13.7125 21.2431 14.6361 21.6258 15.6187 21.6258C16.6012 21.6258 17.5248 21.2431 18.2207 20.5473C18.9165 19.8514 19.2992 18.9278 19.2992 17.9452C19.2992 16.9627 18.9165 16.0391 18.2207 15.3432C17.5248 14.6474 16.6012 14.2647 15.6187 14.2647C14.6361 14.2647 13.7125 14.6474 13.0166 15.3432C12.3208 16.0391 11.9381 16.9627 11.9381 17.9452C11.9381 18.9278 12.3208 19.8514 13.0166 20.5473ZM12.8481 20.7158C13.5886 21.4563 14.5728 21.8642 15.6187 21.8642C16.6645 21.8642 17.6488 21.4563 18.3892 20.7158C19.1297 19.9753 19.5376 18.9911 19.5376 17.9452C19.5376 16.8994 19.1297 15.9151 18.3892 15.1746C17.6488 14.4342 16.6645 14.0263 15.6187 14.0263C14.5728 14.0263 13.5886 14.4342 12.8481 15.1746C12.1076 15.9151 11.6997 16.8994 11.6997 17.9452C11.6997 18.9911 12.1076 19.9753 12.8481 20.7158Z" fill="#408AC9"/>
<circle cx="20.1408" cy="20.3683" r="15.25" stroke="#408AC9" stroke-width="2"/>
<rect x="27.3947" y="19.1824" width="16" height="16" rx="8" fill="white"/>
<path d="M31.7947 27.1824L34.1947 29.5824L38.9947 24.7824" stroke="#7CC076" stroke-width="2.5" stroke-linecap="round" stroke-linejoin="round"/>
<rect x="27.3947" y="19.1824" width="16" height="16" rx="8" stroke="#7CC076" stroke-width="2"/>
</svg>
