<svg width="45" height="41" viewBox="0 0 45 41" fill="none" xmlns="http://www.w3.org/2000/svg">
<path d="M24.0395 27.6266C23.6096 26.6085 22.9859 25.6837 22.203 24.9038C21.4225 24.1217 20.4979 23.498 19.4803 23.0674C19.4712 23.0628 19.462 23.0606 19.4529 23.056C20.8724 22.0307 21.7952 20.3606 21.7952 18.4763C21.7952 15.3548 19.2661 12.8258 16.1446 12.8258C13.0231 12.8258 10.4941 15.3548 10.4941 18.4763C10.4941 20.3606 11.4168 22.0307 12.8363 23.0583C12.8272 23.0628 12.8181 23.0651 12.809 23.0697C11.7882 23.5003 10.8723 24.1178 10.0862 24.9061C9.30406 25.6866 8.68043 26.6112 8.2498 27.6289C7.8333 28.6131 7.70969 29.2128 7.64937 29.8197C7.6192 30.1232 7.80806 30.4974 7.80806 30.4974L8.2498 30.7845H9.30928C9.30928 30.7845 9.30927 28.0167 11.3098 26.1296C12.6016 24.8378 14.3173 24.1269 16.1446 24.1269C17.9719 24.1269 19.1259 24.3283 20.9795 26.1296C22.8331 27.9309 22.98 30.7845 22.98 30.7845L24.4218 30.7769L24.5811 30.7754C24.5811 30.7754 24.7025 30.5909 24.6703 30.2944C24.6031 29.6742 24.4351 28.5637 24.0395 27.6266ZM16.1446 22.3953C15.0988 22.3953 14.1145 21.9874 13.374 21.2469C12.6335 20.5064 12.2257 19.5221 12.2257 18.4763C12.2257 17.4305 12.6335 16.4462 13.374 15.7057C14.1145 14.9652 15.0988 14.5574 16.1446 14.5574C17.1904 14.5574 18.1747 14.9652 18.9152 15.7057C19.6557 16.4462 20.0636 17.4305 20.0636 18.4763C20.0636 19.5221 19.6557 20.5064 18.9152 21.2469C18.1747 21.9874 17.1904 22.3953 16.1446 22.3953Z" fill="#C4CDDF"/>
<path fill-rule="evenodd" clip-rule="evenodd" d="M7.89959 30.3311C7.89959 30.3311 7.82685 30.1445 7.85701 29.841C7.91733 29.234 7.83335 28.6131 8.24985 27.6289C8.68048 26.6112 9.30411 25.6866 10.0863 24.9061C10.8143 24.176 11.6536 23.5925 12.5845 23.1682C12.6587 23.1344 12.7336 23.1015 12.809 23.0697C12.8136 23.0674 12.8181 23.0657 12.8227 23.064C12.8273 23.0623 12.8318 23.0606 12.8364 23.0583C12.8208 23.047 12.8053 23.0357 12.7899 23.0243L12.7842 23.0201C12.7281 22.9785 12.6727 22.9358 12.6182 22.8922C11.3231 21.8558 10.4941 20.2622 10.4941 18.4763C10.4941 15.3549 13.0232 12.8258 16.1447 12.8258C19.2662 12.8258 21.7952 15.3549 21.7952 18.4763C21.7952 20.2622 20.9664 21.8556 19.6714 22.8901C19.6167 22.9337 19.5613 22.9763 19.5051 23.018L19.4995 23.022C19.4841 23.0334 19.4686 23.0448 19.453 23.056C19.4575 23.0583 19.4621 23.06 19.4667 23.0617C19.4712 23.0634 19.4758 23.0651 19.4803 23.0674C19.5557 23.0993 19.6305 23.1322 19.7048 23.1662C20.634 23.5912 21.4803 24.1796 22.2031 24.9038C22.986 25.6838 23.6097 26.6085 24.0395 27.6266C24.4351 28.5637 24.6031 29.6742 24.6704 30.2944C24.7025 30.5909 24.5782 30.7769 24.5782 30.7769H24.4218L22.98 30.7845C22.98 30.7845 22.8331 27.931 20.9795 26.1297C19.126 24.3284 17.972 24.1269 16.1447 24.1269C14.3174 24.1269 12.6017 24.8378 11.3098 26.1297C9.30933 28.0167 9.30933 30.7845 9.30933 30.7845L7.89959 30.3311ZM9.54772 30.7847V31.0229L7.73665 30.5695L7.67747 30.4177L7.89959 30.3311C7.67747 30.4177 7.67747 30.4177 7.67747 30.4177L7.67695 30.4163L7.67633 30.4147L7.67481 30.4106L7.67074 30.399C7.66762 30.3898 7.66373 30.3776 7.65946 30.3626C7.65091 30.3327 7.64075 30.2914 7.63198 30.2399C7.61442 30.1369 7.60235 29.9928 7.61978 29.8174C7.68104 29.201 7.60011 28.5525 8.0303 27.536C8.47289 26.4901 9.11381 25.5398 9.91767 24.7376C10.6371 24.0161 11.4628 23.4336 12.376 23.0021C11.0803 21.9213 10.2557 20.2945 10.2557 18.4763C10.2557 15.2232 12.8915 12.5874 16.1447 12.5874C19.3978 12.5874 22.0336 15.2232 22.0336 18.4763C22.0336 20.2944 21.2091 21.9212 19.9133 23.0004C20.8254 23.4328 21.6572 24.0194 22.3716 24.7352C23.1763 25.5369 23.8174 26.4874 24.2591 27.5339C24.6686 28.5037 24.8394 29.6421 24.9074 30.2687C24.9276 30.455 24.942 34.504 24.9074 34.6134C24.8901 34.668 24.8711 34.7117 24.8555 34.7432C24.8476 34.7591 24.8405 34.7719 24.8349 34.7817L24.8275 34.7941L24.8247 34.7985L24.8236 34.8003L24.8228 34.8015C24.8228 34.8015 24.5961 31.0712 24.5782 30.7769L24.8228 34.8015L24.7528 34.908L24.4664 34.9107L22.7959 34.9195L22.742 30.7969L22.7416 30.7909L22.7401 30.7691C22.7387 30.7494 22.7364 30.7196 22.7327 30.6806C22.7254 30.6027 22.7129 30.4881 22.6922 30.3446C22.6506 30.0573 22.5764 29.6551 22.4457 29.1981C22.1833 28.2807 21.6988 27.1611 20.8134 26.3006C19.9007 25.4137 19.1765 24.9366 18.4699 24.6765C17.7623 24.4161 17.0518 24.3653 16.1447 24.3653C14.3806 24.3653 12.7256 25.051 11.4784 26.2982L11.4735 26.3031C10.5156 27.2067 10.0325 28.3253 9.78957 29.2268C9.66834 29.6766 9.60779 30.0691 9.5776 30.3482C9.56251 30.4877 9.55504 30.5985 9.55134 30.6736C9.54949 30.7112 9.54859 30.7398 9.54815 30.7586L9.54777 30.7793L9.54772 30.7847ZM13.5427 21.0784C14.2385 21.7742 15.1622 22.1569 16.1447 22.1569C17.1272 22.1569 18.0509 21.7742 18.7467 21.0784C19.4425 20.3825 19.8252 19.4589 19.8252 18.4763C19.8252 17.4938 19.4425 16.5701 18.7467 15.8743C18.0509 15.1785 17.1272 14.7958 16.1447 14.7958C15.1622 14.7958 14.2385 15.1785 13.5427 15.8743C12.8468 16.5701 12.4641 17.4938 12.4641 18.4763C12.4641 19.4589 12.8468 20.3825 13.5427 21.0784ZM13.3741 21.2469C14.1146 21.9874 15.0989 22.3953 16.1447 22.3953C17.1905 22.3953 18.1748 21.9874 18.9153 21.2469C19.6558 20.5064 20.0636 19.5221 20.0636 18.4763C20.0636 17.4305 19.6558 16.4462 18.9153 15.7057C18.1748 14.9652 17.1905 14.5574 16.1447 14.5574C15.0989 14.5574 14.1146 14.9652 13.3741 15.7057C12.6336 16.4462 12.2257 17.4305 12.2257 18.4763C12.2257 19.5221 12.6336 20.5064 13.3741 21.2469Z" fill="#C4CDDF"/>
<circle cx="20.6668" cy="20.8994" r="15.25" stroke="#C4CDDF" stroke-width="2"/>
<rect x="27.9208" y="19.7135" width="16" height="16" rx="8" fill="white"/>
<path fill-rule="evenodd" clip-rule="evenodd" d="M32.1035 27.7135C32.1035 27.1425 32.4918 26.6796 32.9709 26.6796L38.8706 26.6796C39.3497 26.6796 39.738 27.1425 39.738 27.7135C39.738 28.2845 39.3497 28.7474 38.8706 28.7474L32.9709 28.7474C32.4918 28.7474 32.1035 28.2845 32.1035 27.7135Z" fill="#7CC076"/>
<path fill-rule="evenodd" clip-rule="evenodd" d="M35.9195 23.8962C36.4905 23.8962 36.9534 24.2845 36.9534 24.7636L36.9534 30.6633C36.9534 31.1424 36.4905 31.5307 35.9195 31.5307C35.3485 31.5307 34.8856 31.1424 34.8856 30.6633L34.8856 24.7636C34.8856 24.2845 35.3485 23.8962 35.9195 23.8962Z" fill="#7CC076"/>
<rect x="27.9208" y="19.7135" width="16" height="16" rx="8" stroke="#7CC076" stroke-width="2"/>
</svg>
