<svg width="17" height="17" viewBox="0 0 17 17" fill="none" xmlns="http://www.w3.org/2000/svg">
<g clip-path="url(#clip0)">
<path d="M11.7774 13.7496L12.3301 14.2566L12.331 14.2557L11.7774 13.7496ZM9.9701 15.4148L9.51002 14.8225L9.51 14.8225L9.9701 15.4148ZM5.72501 13.7496L5.17142 14.2557L5.17218 14.2565L5.72501 13.7496ZM7.53158 15.4148L7.07138 16.007L7.07187 16.0074L7.53158 15.4148ZM6.98343 5.70559L7.51376 6.23592H7.51376L6.98343 5.70559ZM6.98343 9.24113L7.51376 8.71079H7.51376L6.98343 9.24113ZM10.519 9.24113L9.98863 8.71079H9.98863L10.519 9.24113ZM10.519 5.70559L9.98863 6.23592H9.98863L10.519 5.70559ZM11.2247 13.2427C10.6984 13.8165 10.1249 14.3449 9.51002 14.8225L10.4302 16.0071C11.1115 15.4779 11.747 14.8924 12.3301 14.2566L11.2247 13.2427ZM13.7137 7.55303C13.7137 9.92389 12.4708 11.8793 11.2238 13.2436L12.331 14.2557C13.696 12.7623 15.2137 10.4591 15.2137 7.55303H13.7137ZM8.7512 2.59055C11.4926 2.59055 13.7137 4.73414 13.7137 7.55303H15.2137C15.2137 3.88968 12.3049 1.09055 8.7512 1.09055V2.59055ZM3.78871 7.55303C3.78871 4.73414 6.00977 2.59055 8.7512 2.59055V1.09055C5.19746 1.09055 2.28871 3.88968 2.28871 7.55303H3.78871ZM6.2786 13.2436C5.03156 11.8793 3.78871 9.92388 3.78871 7.55303H2.28871C2.28871 10.4591 3.80642 12.7623 5.17142 14.2557L6.2786 13.2436ZM7.99178 14.8226C7.37717 14.345 6.80384 13.8166 6.27784 13.2428L5.17218 14.2565C5.75503 14.8922 6.39034 15.4778 7.07138 16.007L7.99178 14.8226ZM9.51 14.8225C9.07968 15.1568 8.86757 15.209 8.74636 15.2082C8.62245 15.2073 8.41393 15.1501 7.99129 14.8222L7.07187 16.0074C7.56941 16.3934 8.10705 16.7037 8.7358 16.7081C9.36725 16.7126 9.91431 16.4079 10.4302 16.0071L9.51 14.8225ZM7.51376 6.23592C7.84195 5.90773 8.28707 5.72336 8.7512 5.72336V4.22336C7.88924 4.22336 7.06259 4.56577 6.4531 5.17526L7.51376 6.23592ZM7.0012 7.47336C7.0012 7.00923 7.18557 6.56411 7.51376 6.23592L6.4531 5.17526C5.84361 5.78475 5.5012 6.6114 5.5012 7.47336H7.0012ZM7.51376 8.71079C7.18557 8.38261 7.0012 7.93749 7.0012 7.47336H5.5012C5.5012 8.33531 5.84361 9.16196 6.4531 9.77146L7.51376 8.71079ZM8.7512 9.22336C8.28707 9.22336 7.84195 9.03898 7.51376 8.71079L6.4531 9.77146C7.06259 10.3809 7.88924 10.7234 8.7512 10.7234V9.22336ZM9.98863 8.71079C9.66044 9.03898 9.21533 9.22336 8.7512 9.22336V10.7234C9.61315 10.7234 10.4398 10.3809 11.0493 9.77146L9.98863 8.71079ZM10.5012 7.47336C10.5012 7.93749 10.3168 8.38261 9.98863 8.71079L11.0493 9.77146C11.6588 9.16196 12.0012 8.33531 12.0012 7.47336H10.5012ZM9.98863 6.23592C10.3168 6.56411 10.5012 7.00923 10.5012 7.47336H12.0012C12.0012 6.61141 11.6588 5.78475 11.0493 5.17526L9.98863 6.23592ZM8.7512 5.72336C9.21533 5.72336 9.66044 5.90773 9.98863 6.23592L11.0493 5.17526C10.4398 4.56577 9.61315 4.22336 8.7512 4.22336V5.72336Z" fill="#C4CDDF"/>
</g>
<defs>
<clipPath id="clip0">
<rect width="16" height="16" fill="white" transform="translate(0.751221 0.899368)"/>
</clipPath>
</defs>
</svg>
