<svg width="17" height="17" viewBox="0 0 17 17" fill="none" xmlns="http://www.w3.org/2000/svg">
<path d="M8.75104 1.39905C6.61349 1.39905 5.00095 3.01159 5.00095 5.14914C5.00095 7.2867 6.61349 8.89924 8.75104 8.89924C10.8886 8.89924 12.5011 7.2867 12.5011 5.14914C12.5011 3.01159 10.8886 1.39905 8.75104 1.39905ZM8.75104 7.02419C7.64664 7.02419 6.87599 6.25354 6.87599 5.14914C6.87599 4.04474 7.64664 3.27409 8.75104 3.27409C9.85544 3.27409 10.6261 4.04474 10.6261 5.14914C10.6261 6.25354 9.85544 7.02419 8.75104 7.02419Z" fill="#C4CDDF"/>
<path fill-rule="evenodd" clip-rule="evenodd" d="M3.22244 14.5246C4.78623 15.6918 6.70159 16.3997 8.75195 16.3997C10.8023 16.3997 12.7177 15.6918 14.2815 14.5246C14.2815 14.5246 14.3288 13.8642 14.2815 13.4454C14.2304 12.9936 14.0115 12.313 14.0115 12.313C13.6538 11.4616 13.0531 10.7346 12.2843 10.223C11.5155 9.71137 10.6129 9.43786 9.68948 9.43669H7.81443C6.89098 9.43786 5.98838 9.71137 5.21962 10.223C4.45085 10.7346 3.85006 11.4616 3.49245 12.313C3.49245 12.313 3.27453 12.8993 3.22239 13.3447C3.1716 13.7784 3.22244 14.5246 3.22244 14.5246ZM6.05506 11.9337C5.55637 12.3349 5.20932 12.8942 5.07116 13.5191C6.16619 14.1538 7.42435 14.5251 8.75188 14.5251C10.0794 14.5251 11.3376 14.1538 12.4326 13.5191C12.2943 12.8942 11.9472 12.3351 11.4485 11.934C10.9499 11.5328 10.3294 11.3135 9.68941 11.3122H7.81436C7.17431 11.3133 6.55376 11.5325 6.05506 11.9337Z" fill="#C4CDDF"/>
</svg>
