<svg width="80" height="71" fill="none" xmlns="http://www.w3.org/2000/svg"><path opacity=".3" d="M30.746 68.913c-13.965 0-25.255-11.29-25.255-25.255 0-13.964 11.29-25.254 25.255-25.254C44.71 18.404 56 29.694 56 43.658c0 13.965-11.439 25.255-25.254 25.255z" fill="#C4CDDF"/><path d="M43.889 30.196c0 2.135-1.708 3.867-3.815 3.867s-3.816-1.732-3.816-3.867c0-2.136 1.709-3.867 3.816-3.867 2.107 0 3.815 1.731 3.815 3.867zm-17.005.143l5.333 7.588-14.615 23.06L41.33 37.254 26.884 30.34zm10.208 13.659l-4.032 3.878 2.562 4.342-9.071 3.92 15.077-1.812-4.536-10.328z" fill="#C4CDDF"/><path d="M42.136 17.375a24.263 24.263 0 017.69 5.193 25.812 25.812 0 013.655 4.69l9.126-5.175a32.18 32.18 0 00-2.618-3.468c-3.927-4.547-8.345-8.375-14.526-10.405l-3.327 9.165zM8.629 25.3c2.963-3.02 7.836-6.434 11.363-7.943a29.42 29.42 0 011.872-.72L18.72 10.24c-4.872 2.48-8.272 5.84-10.636 8.824a33.66 33.66 0 00-2.654 3.9l3.2 2.336zM43.19 7.563c-2.09-.503-4.381-.809-6.908-.88-6.218-.216-11.29.862-15.418 2.57l3.31 6.738c5.035-1.222 10.617-1.114 15.744.557l3.272-8.985zM7.065 27.06L4.32 25.049c-5.327 11.016-2.69 21.546-2.69 21.546h.454S.01 36.621 7.01 27.15a.353.353 0 00.054-.09zm47.543 2.265c4.2 8.428 3.509 17.27 3.509 17.27h9.38s2.528-11.286-3.672-22.5l-9.217 5.23z" opacity=".45" fill="#C4CDDF"/><path d="M1.654 46.721h.455s-.146-.685-.218-1.874l-.564-.018c.146 1.207.327 1.892.327 1.892zm-.345-1.911l.563.019a27.277 27.277 0 01-.054-2.235l-.745-.036c.072.883.145 1.64.236 2.253z" fill="#E11E3E" stroke="#E11E3E" stroke-width=".5"/><path d="M1.073 42.576l.745.036a26.2 26.2 0 01.145-2.253L1 40.27a44 44 0 00.073 2.307zM1 40.269l.963.072a28.86 28.86 0 01.327-2.235l-1.217-.162A34.932 34.932 0 001 40.269z" fill="#E11E3E" stroke="#E11E3E" stroke-width=".5"/><path d="M1.073 37.944l1.217.162c.128-.72.31-1.46.51-2.235l-1.527-.252a37.25 37.25 0 00-.2 2.325z" fill="#E11E3E" stroke="#E11E3E" stroke-width=".5"/><path d="M1.273 35.619l1.526.252c.182-.649.4-1.334.636-2L1.6 33.474c-.127.739-.237 1.46-.327 2.145z" fill="#E11E3E" stroke="#E11E3E" stroke-width=".5"/><path d="M1.618 33.492l1.835.397c.237-.631.491-1.28.8-1.929l-2.163-.559a26.809 26.809 0 00-.472 2.091zm.454-2.109l2.163.559c.29-.613.6-1.244.945-1.874l-2.508-.775a52.604 52.604 0 00-.6 2.09zm1.327-4.073c-.254.667-.49 1.316-.709 1.983l2.508.775c.31-.541.636-1.1 1-1.64L3.399 27.31zm3.617-.09c.018-.036.054-.054.072-.09l-2.744-2.02c-.345.74-.672 1.46-.963 2.18l2.78 1.118c.291-.378.564-.775.855-1.19zm-1.546-4.2l3.181 2.343c.273-.288.564-.558.873-.847L6.289 21.67c-.291.45-.564.9-.818 1.351z" fill="#E11E3E" stroke="#E11E3E" stroke-width=".5"/><path d="M6.289 21.669l3.235 2.847c.418-.396.872-.793 1.345-1.19l-3.563-3.135c-.363.486-.69.973-1.017 1.478zm1.817-2.559c-.273.36-.545.702-.8 1.063l3.562 3.136c.455-.379.91-.757 1.4-1.136L8.45 18.695c-.109.144-.236.27-.345.414z" fill="#E11E3E" stroke="#E11E3E" stroke-width=".5"/><path d="M8.451 18.695l3.799 3.496c.454-.342.908-.703 1.381-1.027l-3.907-3.965c-.437.504-.873.991-1.273 1.496zm1.291-1.496l3.907 3.965 1.472-1.027-4.053-4.344c-.472.469-.908.937-1.326 1.406z" fill="#E11E3E" stroke="#E11E3E" stroke-width=".5"/><path d="M11.068 15.793l4.035 4.344c.454-.307.927-.595 1.381-.884l-4.07-4.704c-.473.415-.91.83-1.346 1.244z" fill="#E11E3E" stroke="#E11E3E" stroke-width=".5"/><path d="M12.413 14.55l4.071 4.703a39.37 39.37 0 011.4-.81l-4.09-5.047c-.472.378-.926.775-1.38 1.153zm1.4-1.154l4.089 5.046c.509-.27.981-.522 1.454-.739l-4.035-5.407a24.9 24.9 0 00-1.508 1.1z" fill="#E11E3E" stroke="#E11E3E" stroke-width=".5"/><path d="M20.7 17.127l-3.78-5.858a24.14 24.14 0 00-1.599 1.027l4.035 5.407c.218-.108.436-.198.654-.288.236-.108.473-.198.69-.288z" fill="#E11E3E" stroke="#E11E3E" stroke-width=".5"/><path d="M21.882 16.694l-3.144-6.434c-.636.324-1.236.667-1.836 1.009l3.799 5.858c.4-.163.781-.307 1.181-.433zm-1-7.426l3.308 6.76c.345-.09.69-.163 1.054-.235l-2.253-7.3c-.727.235-1.436.487-2.109.775z" fill="#E11E3E" stroke="#E11E3E" stroke-width=".5"/><path d="M22.972 8.475l2.254 7.3c.418-.09.854-.162 1.272-.234L24.99 7.88c-.69.18-1.363.378-2.018.594z" fill="#E11E3E" stroke="#E11E3E" stroke-width=".5"/><path d="M24.99 7.88l1.508 7.679a28.28 28.28 0 011.727-.217l-.927-7.984c-.782.144-1.563.324-2.308.523zm2.326-.522l.927 7.984a27.19 27.19 0 011.708-.108l-.4-8.237c-.763.09-1.508.217-2.235.36z" fill="#E11E3E" stroke="#E11E3E" stroke-width=".5"/><path d="M29.551 6.997l.4 8.237a35.69 35.69 0 011.963-.018l-.018-8.453c-.818.054-1.6.126-2.345.234zm2.345-.234l.018 8.453c.636.018 1.254.054 1.89.108l.218-8.669c-.727.018-1.435.054-2.126.108zm4.38-.09c-.764-.018-1.509-.018-2.254-.018l-.218 8.67c.673.053 1.327.144 1.981.252l.509-8.904h-.018z" fill="#E11E3E" stroke="#E11E3E" stroke-width=".5"/><path d="M36.294 6.673l-.509 8.904c.527.09 1.054.18 1.563.306L38.384 6.8a68.7 68.7 0 00-2.09-.126z" fill="#E11E3E" stroke="#E11E3E" stroke-width=".5"/><path d="M38.384 6.8l-1.036 9.083c.436.09.89.216 1.327.324l2.108-9.12a33.556 33.556 0 00-2.399-.288zm4.816.774a43.963 43.963 0 00-2.417-.487l-2.108 9.12a16.6 16.6 0 011.254.379L43.2 7.574zm2.272.649l-3.326 9.21c.364.162.709.325 1.072.487l4.417-8.886a22.168 22.168 0 00-2.163-.811z" fill="#E11E3E" stroke="#E11E3E" stroke-width=".5"/><path d="M47.616 9.016L43.2 17.902c.382.18.763.378 1.127.595l5.38-8.49a31.907 31.907 0 00-2.09-.99z" fill="#E11E3E" stroke="#E11E3E" stroke-width=".5"/><path d="M49.706 10.007l-5.36 8.49c.435.234.853.486 1.271.756l6.089-8.074a32.039 32.039 0 00-2-1.172z" fill="#E11E3E" stroke="#E11E3E" stroke-width=".5"/><path d="M51.687 11.179L45.6 19.253c.436.27.872.56 1.29.866l6.58-7.714a25.683 25.683 0 00-1.782-1.226zm1.8 1.226l-6.58 7.714c.437.324.873.648 1.29 1.009l6.87-7.462a96.934 96.934 0 00-1.58-1.261z" fill="#E11E3E" stroke="#E11E3E" stroke-width=".5"/><path d="M55.05 13.666l-6.87 7.462c.436.36.854.739 1.272 1.153l7.16-7.209a28.79 28.79 0 00-1.562-1.406z" fill="#E11E3E" stroke="#E11E3E" stroke-width=".5"/><path d="M56.612 15.072l-7.16 7.191c.127.108.236.235.363.36.31.325.6.632.89.956l7.543-6.849a35.11 35.11 0 00-1.636-1.658zm1.654 1.676l-7.542 6.85c.382.414.727.846 1.072 1.279l8.051-6.417c-.527-.576-1.054-1.153-1.58-1.712zm3.035 3.551a36.48 36.48 0 00-1.308-1.622c-.055-.072-.11-.127-.164-.199l-8.05 6.417c.344.432.653.883.962 1.334l8.56-5.93z" fill="#E11E3E" stroke="#E11E3E" stroke-width=".5"/><path d="M53.468 27.346l9.142-5.209c-.4-.613-.836-1.244-1.309-1.856l-8.56 5.93c.273.378.51.757.727 1.135zm10.36-3.19L54.613 29.4c.182.378.364.739.527 1.117l9.724-4.326a71.795 71.795 0 00-1.036-2.036z" fill="#E11E3E" stroke="#E11E3E" stroke-width=".5"/><path d="M64.845 26.192l-9.723 4.326c.164.379.327.757.473 1.136l10.195-3.172a26.505 26.505 0 00-.945-2.29zm.964 2.29l-10.196 3.172c.236.594.454 1.19.654 1.766l10.341-2.56a52.118 52.118 0 00-.8-2.378z" fill="#E11E3E" stroke="#E11E3E" stroke-width=".5"/><path d="M66.59 30.86l-10.34 2.56c.182.559.345 1.1.509 1.64l10.395-1.983a30.571 30.571 0 00-.563-2.216zm.582 2.236l-10.396 1.982c.182.631.327 1.244.454 1.838l10.36-1.513a41.563 41.563 0 00-.418-2.307z" fill="#E11E3E" stroke="#E11E3E" stroke-width=".5"/><path d="M67.59 35.403l-10.36 1.514c.146.648.273 1.297.382 1.91l10.268-1.081a39.18 39.18 0 00-.29-2.343z" fill="#E11E3E" stroke="#E11E3E" stroke-width=".5"/><path d="M67.862 37.746l-10.268 1.081c.127.703.218 1.388.29 2.019l10.105-.865a33.797 33.797 0 00-.127-2.235zm.128 2.253l-10.105.865c.09.703.145 1.37.181 1.982l9.905-.468c.037-.74.037-1.532.018-2.38z" fill="#E11E3E" stroke="#E11E3E" stroke-width=".5"/><path d="M67.971 42.36l-9.905.468c.055.74.073 1.388.073 1.947l9.669-.216a31.08 31.08 0 00.163-2.2z" fill="#E11E3E" stroke="#E11E3E" stroke-width=".5"/><path d="M58.14 44.775c.017 1.225-.037 1.946-.037 1.946h9.378s.181-.793.327-2.162l-9.669.216z" fill="#E11E3E" stroke="#E11E3E" stroke-width=".5"/><circle cx="10.768" cy="60.016" r="3.118" fill="#7CC076" stroke="#C4CDDF"/><path d="M46.593 57.011a2 2 0 012-2h18.796a2 2 0 012 2v11.888a2 2 0 01-2 2H48.593a2 2 0 01-2-2V57.011z" fill="#E11E3E"/><path d="M47.901 67.455v-7.848h2.472c.432 0 .832.04 1.2.12.376.08.7.216.972.408.272.192.484.444.636.756.152.304.228.684.228 1.14 0 .432-.076.808-.228 1.128-.152.32-.364.588-.636.804-.264.208-.58.364-.948.468-.36.096-.752.144-1.176.144h-1.128v2.88h-1.392zm1.392-3.996h1.02c1.152 0 1.728-.476 1.728-1.428 0-.496-.152-.836-.456-1.02-.296-.192-.736-.288-1.32-.288h-.972v2.736zm5.593 3.996v-7.848h2.651c.409 0 .788.04 1.14.12.352.08.657.212.913.396.255.176.455.412.6.708.152.296.227.664.227 1.104 0 .6-.144 1.084-.431 1.452-.28.368-.656.632-1.128.792l1.872 3.276h-1.56l-1.693-3.072h-1.2v3.072h-1.392zm1.392-4.176h1.116c.535 0 .944-.112 1.224-.336.288-.224.431-.56.431-1.008 0-.456-.143-.772-.431-.948-.28-.176-.689-.264-1.224-.264h-1.116v2.556zm8.757 4.32a3.49 3.49 0 01-1.404-.276 3.135 3.135 0 01-1.092-.816 3.89 3.89 0 01-.708-1.296c-.168-.504-.252-1.076-.252-1.716 0-.632.084-1.196.252-1.692.168-.504.404-.928.708-1.272a3.07 3.07 0 011.092-.792 3.49 3.49 0 011.404-.276c.512 0 .98.092 1.404.276a3.07 3.07 0 011.092.792c.312.344.552.768.72 1.272.168.496.252 1.06.252 1.692 0 .64-.084 1.212-.252 1.716a3.776 3.776 0 01-.72 1.296 3.135 3.135 0 01-1.092.816 3.49 3.49 0 01-1.404.276zm0-1.212c.312 0 .592-.068.84-.204.248-.136.46-.328.636-.576a2.98 2.98 0 00.408-.912c.096-.36.144-.76.144-1.2 0-.88-.184-1.568-.552-2.064-.36-.504-.852-.756-1.476-.756s-1.12.252-1.488.756c-.36.496-.54 1.184-.54 2.064 0 .44.048.84.144 1.2.096.352.232.656.408.912.176.248.388.44.636.576.248.136.528.204.84.204z" fill="#fff"/><g clip-path="url(#clip0)"><path d="M79.496 10.801L77.57 8.593l.27-2.923a1.04 1.04 0 00-.798-1.109l-2.859-.642-1.491-2.53a1.041 1.041 0 00-1.305-.425l-2.683 1.15-2.682-1.15a1.028 1.028 0 00-1.295.425l-1.502 2.52-2.848.642c-.507.114-.86.58-.808 1.099l.27 2.933-1.937 2.218a1.041 1.041 0 000 1.368l1.937 2.208-.27 2.934c-.051.518.3.995.798 1.109l2.858.653 1.492 2.519c.27.446.828.632 1.305.425l2.682-1.171 2.683 1.15c.476.207 1.035.02 1.294-.425l1.492-2.519 2.858-.653c.508-.114.85-.59.798-1.109l-.27-2.923 1.927-2.208a1.016 1.016 0 00.01-1.358z" fill="#C4E8C1"/><path d="M64.72 11.49l2.652 2.653 5.305-5.305" stroke="#7CC076" stroke-width="2.5" stroke-linecap="round" stroke-linejoin="round"/></g><defs><clipPath id="clip0"><path fill="#fff" transform="translate(57.646 .438)" d="M0 0h22.106v22.106H0z"/></clipPath></defs></svg>