<svg width="15" height="12" fill="none" xmlns="http://www.w3.org/2000/svg"><path d="M1.456 11.091a.957.957 0 01-.208-.016.877.877 0 01-.192-.032l-.112-1.04c.181 0 .315-.048.4-.144.096-.096.144-.272.144-.528V.691H2.96c.49 1.099.97 2.192 1.44 3.28.47 1.088.933 2.187 1.392 3.296l.912 2.064h.064c-.043-.501-.075-.96-.096-1.376a157.11 157.11 0 00-.064-1.168c-.01-.373-.021-.73-.032-1.072V2.083c0-.533.096-.928.288-1.184.203-.266.523-.4.96-.4.085 0 .15.006.192.016.053.011.123.027.208.048l.112 1.04c-.181 0-.32.048-.416.144-.096.086-.144.256-.144.512v8.64H6.304c-.48-1.098-.955-2.192-1.424-3.28a321.22 321.22 0 01-1.408-3.312L2.576 2.26h-.064a41.23 41.23 0 01.144 2.56c.01.363.016.72.016 1.072.01.342.016.704.016 1.088v2.544c0 .523-.096.918-.288 1.184-.192.256-.507.384-.944.384zm10.16-4.608a2.59 2.59 0 01-.96-.176 2.392 2.392 0 01-.784-.496 2.396 2.396 0 01-.528-.816 2.91 2.91 0 01-.192-1.088c0-.416.064-.784.192-1.104a2.23 2.23 0 01.528-.8 2.09 2.09 0 01.784-.496c.299-.117.619-.176.96-.176.33 0 .645.059.944.176.299.107.56.272.784.496.224.214.4.48.528.8.128.32.192.688.192 1.104 0 .406-.064.768-.192 1.088-.128.32-.304.592-.528.816a2.392 2.392 0 01-.784.496 2.558 2.558 0 01-.944.176zm0-.88c.416 0 .747-.149.992-.448.256-.298.384-.714.384-1.248 0-.544-.128-.965-.384-1.264-.245-.298-.576-.448-.992-.448-.416 0-.752.15-1.008.448-.245.299-.368.72-.368 1.264 0 .534.123.95.368 1.248.256.299.592.448 1.008.448zM9.584 8.5v-.8h4.048v.8H9.584z" fill="#767D86"/></svg>