<svg width="35" height="35" fill="none" xmlns="http://www.w3.org/2000/svg"><path d="M.667 6.9a6 6 0 016-6h22a6 6 0 016 6v22a6 6 0 01-6 6h-22a6 6 0 01-6-6v-22z" fill="#C4CDDF"/><path d="M21.664 24.96v-2.34c-.758.507-1.496.759-2.212.759-.338 0-.716-.107-1.138-.314-.253-.171-.401-.36-.446-.57-.124-.254-.201-.803-.201-1.648v-3.73h3.4V14.85h-3.4v-3.803h-2.009c-.168.886-.337 1.516-.507 1.896-.209.465-.547.886-1.01 1.265-.43.362-.924.64-1.457.822v2.087h1.583v5.124c0 .59.082 1.092.252 1.515.126.338.379.674.76 1.012.294.297.716.549 1.265.76.674.17 1.262.252 1.77.252.59 0 1.138-.063 1.643-.189a6.517 6.517 0 001.707-.63z" fill="#fff"/></svg>