<svg width="35" height="35" fill="none" xmlns="http://www.w3.org/2000/svg"><rect x=".333" y=".899" width="34" height="34" rx="6" fill="#C4CDDF"/><g clip-path="url(#clip0)" fill="#fff"><path d="M25.144 22.043c-2.242 2.163-4.789 3.31-7.794 3.31-3.004 0-5.551-1.147-7.805-3.298-.41.665-.798 1.28-1.174 1.909-.246.423-.586.652-1.068.592-.716-.085-1.138-.834-.774-1.474a134.175 134.175 0 012.84-4.712c.305-.483.892-.556 1.35-.242.422.278.622.907.305 1.39-.387.592-.153.906.258 1.305 3.416 3.334 8.991 3.25 12.3-.194.294-.302.377-.531.142-.93-.388-.664-.247-1.28.258-1.583.552-.338 1.08-.145 1.502.556a710.71 710.71 0 012.489 4.096c.422.713.364 1.305-.165 1.643-.551.362-1.127.17-1.56-.532a14 14 0 01-.341-.555 55.83 55.83 0 00-.763-1.281zm-10.351-9.81c0 1.051-.705 1.776-1.726 1.764-1.01-.012-1.725-.75-1.713-1.788 0-.967.774-1.764 1.713-1.764.986 0 1.726.761 1.726 1.788zm5.104.012c0-1.027.728-1.8 1.726-1.8.962 0 1.737.81 1.725 1.812-.012 1.003-.728 1.74-1.702 1.74-1.033.012-1.737-.7-1.749-1.752z"/></g><defs><clipPath id="clip0"><path fill="#fff" transform="translate(6.4 10.445)" d="M0 0h21.866v14.909H0z"/></clipPath></defs></svg>