<svg width="35" height="35" fill="none" xmlns="http://www.w3.org/2000/svg"><path d="M.667 11.956C.667 5.849 5.617.899 11.723.899H23.61c6.107 0 11.057 4.95 11.057 11.057v11.887c0 6.106-4.95 11.056-11.057 11.056H11.723C5.617 34.9.667 29.95.667 23.843V11.956z" fill="#C4CDDF"/><path d="M17.463 18.19c-2.4 0-4.397-1.995-4.397-4.355 0-2.44 1.996-4.436 4.398-4.436 2.484 0 4.397 1.994 4.397 4.436a4.37 4.37 0 01-4.383 4.355h-.015zm0-6.226c-1.016 0-1.79.854-1.79 1.872 0 1.017.774 1.79 1.791 1.79 1.059 0 1.791-.773 1.791-1.79.001-1.019-.732-1.872-1.792-1.872zm1.751 9.848l2.485 2.401c.489.528.489 1.301 0 1.79-.529.528-1.344.528-1.751 0l-2.484-2.442-2.402 2.442c-.244.244-.57.366-.937.366-.285 0-.61-.123-.896-.366-.49-.489-.49-1.262 0-1.79l2.524-2.402a11.466 11.466 0 01-2.603-1.138c-.611-.326-.733-1.14-.408-1.75.408-.61 1.14-.773 1.792-.366a5.627 5.627 0 005.863 0c.652-.407 1.424-.245 1.79.366.368.61.204 1.423-.367 1.75-.772.489-1.668.855-2.605 1.14v-.001z" fill="#fff"/></svg>