<svg width="34" height="35" fill="none" xmlns="http://www.w3.org/2000/svg"><path d="M0 6.9a6 6 0 016-6h22a6 6 0 016 6v22a6 6 0 01-6 6H6a6 6 0 01-6-6v-22z" fill="#C4CDDF"/><path d="M26.95 12.11a7.927 7.927 0 01-2.274.623 3.97 3.97 0 001.741-2.19 7.903 7.903 0 01-2.514.96 3.961 3.961 0 00-6.747 3.612 11.242 11.242 0 01-8.162-4.138 3.961 3.961 0 001.226 5.287 3.95 3.95 0 01-1.794-.495v.05a3.96 3.96 0 003.176 3.884 3.99 3.99 0 01-1.788.068 3.962 3.962 0 003.7 2.748 7.945 7.945 0 01-4.919 1.696 8.07 8.07 0 01-.945-.055 11.199 11.199 0 006.069 1.779c7.284 0 11.267-6.033 11.267-11.266 0-.17-.005-.342-.012-.512a8.047 8.047 0 001.974-2.048l.002-.003z" fill="#fff"/></svg>