<svg width="34" height="35" fill="none" xmlns="http://www.w3.org/2000/svg"><path d="M0 11.956C0 5.849 4.95.899 11.056.899h11.888C29.05.9 34 5.85 34 11.956v11.887c0 6.106-4.95 11.056-11.056 11.056H11.056C4.95 34.9 0 29.95 0 23.843V11.956z" fill="#C4CDDF"/><path fill-rule="evenodd" clip-rule="evenodd" d="M26.733 12.755c.14-.464 0-.806-.676-.806h-2.231c-.568 0-.83.295-.972.62 0 0-1.135 2.717-2.742 4.482-.52.512-.757.674-1.04.674-.142 0-.356-.162-.356-.627v-4.343c0-.558-.156-.806-.629-.806h-3.509c-.354 0-.567.259-.567.504 0 .528.804.65.886 2.136v3.229c0 .708-.13.836-.414.836-.756 0-2.597-2.73-3.689-5.852-.212-.608-.426-.853-.996-.853H7.565c-.638 0-.765.295-.765.62 0 .58.756 3.46 3.523 7.27 1.845 2.6 4.441 4.01 6.807 4.01 1.419 0 1.594-.313 1.594-.852V21.03c0-.627.134-.752.584-.752.331 0 .898.163 2.223 1.417 1.513 1.487 1.762 2.153 2.613 2.153h2.232c.637 0 .957-.313.773-.931-.202-.616-.925-1.51-1.883-2.569-.52-.604-1.3-1.254-1.537-1.58-.331-.417-.237-.603 0-.974 0 0 2.72-3.762 3.003-5.04z" fill="#fff"/></svg>