<svg width="35" height="35" viewBox="0 0 35 35" fill="none" xmlns="http://www.w3.org/2000/svg">
<path d="M0.333344 6.89929C0.333344 3.58558 3.01964 0.899292 6.33334 0.899292H28.3333C31.6471 0.899292 34.3333 3.58558 34.3333 6.89929V28.8993C34.3333 32.213 31.6471 34.8993 28.3333 34.8993H6.33334C3.01963 34.8993 0.333344 32.213 0.333344 28.8993V6.89929Z" fill="#C4CDDF"/>
<path d="M18.2386 25.5469V18.5803H20.5888L20.9382 15.8526H18.2386V14.1152C18.2386 13.3281 18.4579 12.7892 19.5875 12.7892H21.0189V10.3574C20.3225 10.2828 19.6224 10.2467 18.922 10.2494C16.8446 10.2494 15.4183 11.5176 15.4183 13.8458V15.8475H13.0833V18.5752H15.4234V25.5469H18.2386Z" fill="white"/>
</svg>
