<svg width="35" height="35" viewBox="0 0 35 35" fill="none" xmlns="http://www.w3.org/2000/svg">
<path d="M0.666672 6.89929C0.666672 3.58558 3.35296 0.899292 6.66667 0.899292H28.6667C31.9804 0.899292 34.6667 3.58558 34.6667 6.89929V28.8993C34.6667 32.213 31.9804 34.8993 28.6667 34.8993H6.66667C3.35296 34.8993 0.666672 32.213 0.666672 28.8993V6.89929Z" fill="#C4CDDF"/>
<path d="M21.6639 24.9609V22.6194C20.9057 23.1271 20.1679 23.3787 19.4517 23.3787C19.1139 23.3787 18.7365 23.2722 18.3138 23.0648C18.0611 22.8937 17.9126 22.7056 17.8684 22.4948C17.7437 22.2409 17.6667 21.6924 17.6667 20.8469V17.1171H21.0667V14.8504H17.6667V11.047H15.6584C15.4895 11.9332 15.3207 12.5634 15.1507 12.943C14.9421 13.4077 14.6044 13.8293 14.1409 14.2078C13.7106 14.5696 13.2167 14.8483 12.6845 15.0295V17.1171H14.2667V22.2409C14.2667 22.8302 14.3494 23.3334 14.5194 23.7561C14.6452 24.0939 14.8979 24.4305 15.2799 24.7682C15.5734 25.0651 15.995 25.3167 16.5435 25.5275C17.2179 25.6975 17.8061 25.7803 18.3138 25.7803C18.9031 25.7803 19.4517 25.7168 19.9571 25.591C20.5527 25.4618 21.1273 25.2497 21.6639 24.9609Z" fill="white"/>
</svg>
