<svg width="35" height="35" viewBox="0 0 35 35" fill="none" xmlns="http://www.w3.org/2000/svg">
<rect x="0.333336" y="0.899292" width="34" height="34" rx="6" fill="#C4CDDF"/>
<g clip-path="url(#clip0)">
<path d="M25.144 22.043C22.9021 24.2056 20.3552 25.3534 17.3504 25.3534C14.3457 25.3534 11.7987 24.2056 9.54513 22.055C9.13432 22.7195 8.74699 23.3357 8.3714 23.964C8.12492 24.3868 7.78454 24.6164 7.30331 24.556C6.58733 24.4714 6.16479 23.7223 6.52865 23.082C7.44415 21.4872 8.39487 19.9166 9.36907 18.3701C9.67424 17.8868 10.2611 17.8143 10.7189 18.1284C11.1414 18.4063 11.3409 19.0346 11.024 19.5179C10.6367 20.1099 10.8714 20.424 11.2822 20.8227C14.6978 24.1573 20.273 24.0727 23.5829 20.6294C23.8763 20.3273 23.9585 20.0978 23.7238 19.6991C23.3364 19.0346 23.4773 18.4184 23.982 18.1164C24.5336 17.7781 25.0618 17.9714 25.4843 18.6721C26.3177 20.0374 27.151 21.4026 27.9726 22.7679C28.3952 23.4807 28.3365 24.0727 27.8083 24.411C27.2567 24.7735 26.6815 24.5802 26.2473 23.8794C26.1299 23.6982 26.0125 23.5049 25.9069 23.3236C25.6721 22.9129 25.4374 22.5262 25.144 22.043Z" fill="white"/>
<path d="M14.7925 12.2329C14.7925 13.284 14.0883 14.009 13.0671 13.9969C12.0577 13.9848 11.3417 13.2478 11.3535 12.2088C11.3535 11.2422 12.1281 10.4448 13.0671 10.4448C14.053 10.4448 14.7925 11.206 14.7925 12.2329Z" fill="white"/>
<path d="M19.8972 12.245C19.8972 11.218 20.6249 10.4448 21.6226 10.4448C22.585 10.4448 23.3597 11.2543 23.348 12.2571C23.3362 13.2599 22.6202 13.9969 21.6461 13.9969C20.6132 14.009 19.9089 13.2961 19.8972 12.245Z" fill="white"/>
</g>
<defs>
<clipPath id="clip0">
<rect width="21.8665" height="14.909" fill="white" transform="translate(6.40009 10.4454)"/>
</clipPath>
</defs>
</svg>
