<svg width="35" height="35" viewBox="0 0 35 35" fill="none" xmlns="http://www.w3.org/2000/svg">
<path d="M0.666672 11.9557C0.666672 5.84942 5.6168 0.899292 11.7231 0.899292H23.6102C29.7165 0.899292 34.6667 5.84942 34.6667 11.9557V23.8429C34.6667 29.9492 29.7165 34.8993 23.6102 34.8993H11.7231C5.6168 34.8993 0.666672 29.9492 0.666672 23.8429V11.9557Z" fill="#C4CDDF"/>
<path d="M17.4634 18.1891C15.0621 18.1891 13.0663 16.195 13.0663 13.8354C13.0663 11.3942 15.0621 9.39929 17.4642 9.39929C19.9479 9.39929 21.8613 11.3934 21.8613 13.8354C21.857 14.994 21.3929 16.1035 20.5709 16.9201C19.7489 17.7366 18.6364 18.1934 17.4778 18.19L17.4634 18.1891V18.1891ZM17.4634 11.9637C16.4468 11.9637 15.6733 12.818 15.6733 13.8363C15.6733 14.8529 16.4468 15.6264 17.4642 15.6264C18.5225 15.6264 19.2552 14.8529 19.2552 13.8363C19.256 12.8171 18.5225 11.9637 17.4634 11.9637ZM19.2144 21.8118L21.6989 24.2131C22.1877 24.7409 22.1877 25.5144 21.6989 26.0032C21.1702 26.531 20.3551 26.531 19.9479 26.0032L17.4642 23.5611L15.0621 26.0032C14.8182 26.2471 14.4918 26.3687 14.1246 26.3687C13.8398 26.3687 13.5143 26.2463 13.2287 26.0032C12.7399 25.5144 12.7399 24.7409 13.2287 24.2122L15.7532 21.811C14.8415 21.541 13.9669 21.1587 13.1496 20.6728C12.5385 20.3473 12.4169 19.5338 12.7425 18.9227C13.1496 18.3124 13.8823 18.15 14.5343 18.5572C15.4171 19.0959 16.4313 19.381 17.4655 19.381C18.4997 19.381 19.5139 19.0959 20.3967 18.5572C21.0487 18.15 21.8213 18.3124 22.1877 18.9227C22.5549 19.5338 22.3908 20.3464 21.8205 20.6728C21.0478 21.1616 20.1519 21.5279 19.2152 21.8127L19.2144 21.8118V21.8118Z" fill="white"/>
</svg>
