<svg width="34" height="35" viewBox="0 0 34 35" fill="none" xmlns="http://www.w3.org/2000/svg">
<path d="M0 6.89929C0 3.58558 2.68629 0.899292 6 0.899292H28C31.3137 0.899292 34 3.58558 34 6.89929V28.8993C34 32.213 31.3137 34.8993 28 34.8993H6C2.68629 34.8993 0 32.213 0 28.8993V6.89929Z" fill="#C4CDDF"/>
<path d="M24.3649 11.1931L9.29442 17.0046C8.26592 17.4177 8.27187 17.9914 9.10572 18.2473L12.9749 19.4543L21.9271 13.806C22.3504 13.5485 22.7372 13.687 22.4193 13.9692L15.1662 20.5151H15.1645L15.1662 20.5159L14.8993 24.5041C15.2903 24.5041 15.4629 24.3248 15.6822 24.1131L17.5615 22.2856L21.4707 25.1731C22.1915 25.57 22.7091 25.366 22.8885 24.5058L25.4546 12.412C25.7173 11.3589 25.0526 10.882 24.3649 11.1931Z" fill="white"/>
</svg>
