<svg width="34" height="35" viewBox="0 0 34 35" fill="none" xmlns="http://www.w3.org/2000/svg">
<path d="M0 6.89929C0 3.58558 2.68629 0.899292 6 0.899292H28C31.3137 0.899292 34 3.58558 34 6.89929V28.8993C34 32.213 31.3137 34.8993 28 34.8993H6C2.68629 34.8993 0 32.213 0 28.8993V6.89929Z" fill="#C4CDDF"/>
<path d="M26.9501 12.1104C26.2404 12.4249 25.4779 12.6374 24.6764 12.7334C25.5034 12.2386 26.1222 11.4597 26.4172 10.5421C25.6401 11.0037 24.7897 11.3286 23.9029 11.5026C23.3065 10.8659 22.5166 10.4438 21.6557 10.302C20.7949 10.1602 19.9113 10.3065 19.1422 10.7183C18.3731 11.1301 17.7614 11.7843 17.4022 12.5793C17.043 13.3744 16.9563 14.2658 17.1556 15.1151C15.5811 15.0361 14.0408 14.6269 12.6348 13.914C11.2287 13.2012 9.98822 12.2006 8.99386 10.9773C8.65386 11.5638 8.45836 12.2438 8.45836 12.968C8.45798 13.62 8.61853 14.2619 8.92576 14.837C9.23298 15.412 9.6774 15.9023 10.2196 16.2643C9.59079 16.2443 8.9759 16.0744 8.42606 15.7688V15.8198C8.426 16.7342 8.74229 17.6204 9.32126 18.3281C9.90024 19.0359 10.7062 19.5215 11.6025 19.7026C11.0192 19.8604 10.4077 19.8837 9.81411 19.7706C10.067 20.5574 10.5596 21.2454 11.2229 21.7383C11.8862 22.2312 12.687 22.5043 13.5133 22.5195C12.1107 23.6206 10.3784 24.2179 8.59521 24.2152C8.27933 24.2153 7.96372 24.1969 7.65001 24.16C9.46006 25.3238 11.5671 25.9414 13.719 25.939C21.0035 25.939 24.9858 19.9057 24.9858 14.6731C24.9858 14.5031 24.9815 14.3314 24.9739 14.1614C25.7485 13.6013 26.4171 12.9076 26.9484 12.1129L26.9501 12.1104Z" fill="white"/>
</svg>
