<svg width="34" height="35" viewBox="0 0 34 35" fill="none" xmlns="http://www.w3.org/2000/svg">
<path d="M0 11.9557C0 5.84942 4.95013 0.899292 11.0564 0.899292H22.9436C29.0499 0.899292 34 5.84942 34 11.9557V23.8429C34 29.9492 29.0499 34.8993 22.9436 34.8993H11.0564C4.95013 34.8993 0 29.9492 0 23.8429V11.9557Z" fill="#C4CDDF"/>
<path fill-rule="evenodd" clip-rule="evenodd" d="M26.7325 12.7551C26.8736 12.291 26.7325 11.9493 26.0568 11.9493H23.8255C23.2577 11.9493 22.9959 12.2442 22.8539 12.5698C22.8539 12.5698 21.7192 15.2864 20.1118 17.051C19.5916 17.5627 19.3553 17.725 19.0714 17.725C18.9295 17.725 18.7161 17.5627 18.7161 17.0977V12.7551C18.7161 12.1975 18.5597 11.9493 18.0871 11.9493H14.5783C14.2239 11.9493 14.0105 12.2077 14.0105 12.4533C14.0105 12.9812 14.8146 13.1036 14.8971 14.5894V17.8177C14.8971 18.5257 14.767 18.6541 14.4831 18.6541C13.7266 18.6541 11.8864 15.9247 10.7941 12.8018C10.5825 12.1941 10.3683 11.9493 9.79795 11.9493H7.565C6.9275 11.9493 6.8 12.2442 6.8 12.5698C6.8 13.1495 7.5565 16.0293 10.3232 19.8381C12.1677 22.4391 14.7645 23.8493 17.13 23.8493C18.5487 23.8493 18.7238 23.5365 18.7238 22.9967V21.0307C18.7238 20.4042 18.8581 20.2793 19.3077 20.2793C19.6392 20.2793 20.2062 20.4425 21.5305 21.6962C23.0435 23.1829 23.2926 23.8493 24.1443 23.8493H26.3755C27.013 23.8493 27.3326 23.5365 27.149 22.9177C26.9467 22.3023 26.2242 21.4089 25.2663 20.349C24.7461 19.7455 23.9658 19.0952 23.7286 18.7697C23.398 18.3523 23.4923 18.1662 23.7286 17.7947C23.7286 17.7947 26.4486 14.0326 26.7316 12.7551H26.7325Z" fill="white"/>
</svg>
